<svg xmlns="http://www.w3.org/2000/svg" xmlns:xlink="http://www.w3.org/1999/xlink" width="97" height="96" viewBox="0 0 97 96">
  <defs>
    <clipPath id="clip-path">
      <rect id="Rectangle_3712" data-name="Rectangle 3712" width="97" height="96" transform="translate(0.379)" fill="#282f3d"/>
    </clipPath>
  </defs>
  <g id="scan_1" data-name="scan 1" transform="translate(-0.379)">
    <g id="Group_4865" data-name="Group 4865" transform="translate(0)" clip-path="url(#clip-path)">
      <path id="Path_13007" data-name="Path 13007" d="M54.986,25.11a3.88,3.88,0,1,0-7.76,0,2.4,2.4,0,0,1-2.4,2.4H19.707a2.4,2.4,0,0,1-2.4-2.4,3.88,3.88,0,1,0-7.76,0,10.173,10.173,0,0,0,10.16,10.16H44.826a10.173,10.173,0,0,0,10.16-10.16" transform="translate(16.538 35.832)" fill="#282f3d"/>
      <path id="Path_13008" data-name="Path 13008" d="M9.547,19.706a3.88,3.88,0,1,0,7.76,0,2.406,2.406,0,0,1,2.4-2.4H44.826a2.406,2.406,0,0,1,2.4,2.4,3.88,3.88,0,1,0,7.76,0A10.17,10.17,0,0,0,44.826,9.548H19.707A10.17,10.17,0,0,0,9.547,19.706" transform="translate(16.538 16.116)" fill="#282f3d"/>
      <path id="Path_13009" data-name="Path 13009" d="M8.754,22.054a3.884,3.884,0,0,0,3.879-3.879V15.034a2.4,2.4,0,0,1,2.4-2.4h3.139a3.88,3.88,0,1,0,0-7.76H15.033A10.168,10.168,0,0,0,4.875,15.034v3.142a3.884,3.884,0,0,0,3.879,3.879" transform="translate(8.652 8.23)" fill="#282f3d"/>
      <path id="Path_13010" data-name="Path 13010" d="M31.754,4.875H28.614a3.88,3.88,0,1,0,0,7.76h3.139a2.4,2.4,0,0,1,2.4,2.4v3.139a3.88,3.88,0,0,0,7.76,0V15.035a10.173,10.173,0,0,0-10.16-10.16" transform="translate(42.17 8.228)" fill="#282f3d"/>
      <path id="Path_13011" data-name="Path 13011" d="M18.175,34.152H15.035a2.4,2.4,0,0,1-2.4-2.4V28.613a3.88,3.88,0,0,0-7.76,0v3.139a10.173,10.173,0,0,0,10.16,10.16h3.139a3.88,3.88,0,0,0,0-7.76" transform="translate(8.652 41.748)" fill="#282f3d"/>
      <path id="Path_13012" data-name="Path 13012" d="M38.033,24.733a3.886,3.886,0,0,0-3.879,3.881v3.139a2.4,2.4,0,0,1-2.4,2.4H28.614a3.88,3.88,0,1,0,0,7.76h3.139a10.17,10.17,0,0,0,10.16-10.158V28.614a3.888,3.888,0,0,0-3.881-3.881" transform="translate(42.17 41.746)" fill="#282f3d"/>
      <path id="Path_13013" data-name="Path 13013" d="M7.211,20.436a3.886,3.886,0,0,0,3.881,3.881H61.329a3.88,3.88,0,0,0,0-7.76H11.092a3.884,3.884,0,0,0-3.881,3.879" transform="translate(12.595 27.946)" fill="#282f3d"/>
    </g>
  </g>
</svg>
