<svg xmlns="http://www.w3.org/2000/svg" viewBox="0 0 48 48"><defs><style>.cls-1{fill:none;}.cls-2{fill:#ffd3b6;}.cls-3{fill:#ccd3eb;}.cls-4{fill:#96a1c3;}.cls-5{fill:#7a838b;}.cls-6{fill:#5d6972;}.cls-7{fill:#fcab68;}.cls-8{fill:#ea8e49;}.cls-9{fill:#f9b995;}.cls-10{fill:#fff;}.cls-11{fill:#e6e6e6;}.cls-12{fill:#cecece;}</style></defs><g id="Layer_2" data-name="Layer 2"><g id="Layer_1-2" data-name="Layer 1"><rect class="cls-1" width="48" height="48"/><g id="Layer_31" data-name="Layer 31"><path class="cls-2" d="M20.7,27.44h4.13V35H20.7Z"/><path class="cls-3" d="M38.58,41.19v4.12H7V41.19a8.25,8.25,0,0,1,8.25-8.25h5.5a2.07,2.07,0,0,0,4.13,0h5.5A8.25,8.25,0,0,1,38.58,41.19Z"/><path class="cls-4" d="M13.14,43.25A4.12,4.12,0,0,1,9,39.13a8.16,8.16,0,0,1,1.47-4.71A8.24,8.24,0,0,0,7,41.19v4.12H38.58V43.25Z"/><path class="cls-5" d="M33.08,33.41v11.9H12.45V33.41a8.37,8.37,0,0,1,2.75-.47H18l4.81,6.87,4.82-6.87h2.75a8.37,8.37,0,0,1,2.75.47Z"/><path class="cls-6" d="M20,43.25a5.49,5.49,0,0,1-5.49-5.5v-2.1a2.71,2.71,0,0,1,2.65-2.75h-2a8.12,8.12,0,0,0-2.75.48V45.31H33.08V43.25Z"/><path class="cls-7" d="M12.45,39.81H33.08v2.75H12.45Z"/><path class="cls-8" d="M14.92,39.81H12.45v2.75h4.9a5.48,5.48,0,0,1-2.43-2.75Z"/><path class="cls-2" d="M15.2,12.31H30.33v8.94a7.57,7.57,0,0,1-15.13,0V12.31Z"/><path class="cls-9" d="M30.33,16.44V13.69H15.2V21a7.73,7.73,0,0,0,7.27,7.8A7.54,7.54,0,0,0,29,25.46a7.52,7.52,0,0,1-5.53,1.18A7.68,7.68,0,0,1,17.27,19V17.81a1.37,1.37,0,0,1,1.37-1.37Z"/><path class="cls-7" d="M22.08,4.06h1.37a8.25,8.25,0,0,1,8.25,8.25v1.38H13.83V12.31A8.25,8.25,0,0,1,22.08,4.06Z"/><path class="cls-9" d="M14.52,15.06h.68v4.13h-.68a2.07,2.07,0,1,1,0-4.13Z"/><path class="cls-9" d="M31,19.19h-.68V15.06H31a2.07,2.07,0,1,1,0,4.13Z"/><path class="cls-7" d="M22.76,2.69a2.07,2.07,0,0,1,2.07,2.06V15.06H20.7V4.75A2.06,2.06,0,0,1,22.76,2.69Z"/><path class="cls-8" d="M23.8,3a2.1,2.1,0,0,0-1-.28A2.06,2.06,0,0,0,20.7,4.75V15.06h2.06V4.75A2.09,2.09,0,0,1,23.8,3Z"/><path class="cls-8" d="M31.58,10.94H17.85A1.37,1.37,0,0,1,16.59,9,8.25,8.25,0,0,1,23.8,4.08l-.35,0H22.08a8.26,8.26,0,0,0-8.22,7.54c0,.23,0,.47,0,.71v1.38H31.7V12.31A7.84,7.84,0,0,0,31.58,10.94Z"/><path class="cls-7" d="M13.83,12.31H31.7a1.38,1.38,0,0,1,1.38,1.38h0a1.37,1.37,0,0,1-1.38,1.37H13.83a1.37,1.37,0,0,1-1.38-1.37h0A1.38,1.38,0,0,1,13.83,12.31Z"/><path class="cls-8" d="M14.52,13.69a1.37,1.37,0,0,1,1.37-1.38H13.83a1.38,1.38,0,1,0,0,2.75h2.06A1.37,1.37,0,0,1,14.52,13.69Z"/><path class="cls-9" d="M20.7,29.9a7.44,7.44,0,0,0,4.13,0V28.13H20.7Z"/><path d="M19.33,17.81a.69.69,0,0,0-.69.69v.69a.69.69,0,0,0,.69.69.68.68,0,0,0,.68-.69V18.5A.68.68,0,0,0,19.33,17.81Z"/><path d="M26.2,19.88a.69.69,0,0,0,.69-.69V18.5a.69.69,0,1,0-1.38,0v.69A.69.69,0,0,0,26.2,19.88Z"/><path d="M33.37,32.79l-.07,0a8.84,8.84,0,0,0-3-.52H25.51V29A8.24,8.24,0,0,0,31,21.25V19.88a2.74,2.74,0,0,0,2.75-2.74A2.69,2.69,0,0,0,33,15.26a2,2,0,0,0,.28-2.88,2.19,2.19,0,0,0-.94-.64,8.9,8.9,0,0,0-7.13-8.18,2.72,2.72,0,0,0-4.93,0,8.86,8.86,0,0,0-7.13,8.18,2,2,0,0,0-.66,3.52,2.74,2.74,0,0,0,.11,3.87,2.79,2.79,0,0,0,1.9.75v1.37A8.25,8.25,0,0,0,20,29v3.23H15.2a8.84,8.84,0,0,0-3,.52l-.07,0a9,9,0,0,0-5.89,8.4v4.12A.68.68,0,0,0,7,46H38.58a.68.68,0,0,0,.68-.69V41.19a8.94,8.94,0,0,0-5.89-8.4Zm-10.61,2.9a2.76,2.76,0,0,0,2.67-2.06h.82l-3.49,5-3.49-5h.83A2.76,2.76,0,0,0,22.76,35.69Zm.69,4.81h8.94v1.38H23.45Zm8.94-6.58v5.21h-8.3l3.85-5.5h2.39a7.59,7.59,0,0,1,2.06.29ZM31,11.63H25.51V5A7.54,7.54,0,0,1,31,11.63ZM22.76,3.38a1.37,1.37,0,0,1,1.38,1.37v6.88H21.39V4.75A1.37,1.37,0,0,1,22.76,3.38ZM20,5v6.59H14.55A7.51,7.51,0,0,1,20,5ZM15.89,21.25V17.81a.68.68,0,0,0-.69-.68.67.67,0,0,0-.68.68v.69a1.38,1.38,0,1,1,0-2.75H24.83a.68.68,0,0,0,.68-.69.67.67,0,0,0-.68-.68h-11a.69.69,0,0,1,0-1.38H31.7a.69.69,0,1,1,0,1.38H27.58a.68.68,0,0,0-.69.68.69.69,0,0,0,.69.69H31a1.38,1.38,0,1,1,0,2.75v-.69a.67.67,0,0,0-.68-.68.68.68,0,0,0-.69.68v3.44a6.88,6.88,0,1,1-13.75,0Zm6.87,8.25a7.87,7.87,0,0,0,1.38-.12v3.56a1.38,1.38,0,0,1-2.75,0V29.38A7.84,7.84,0,0,0,22.76,29.5Zm-5.17,4.13,3.85,5.5H18a.67.67,0,0,0-.68.68.68.68,0,0,0,.68.69h4.13v1.38H13.14V40.5H15.2a.69.69,0,0,0,.69-.69.68.68,0,0,0-.69-.68H13.14V33.92a7.54,7.54,0,0,1,2.06-.29ZM7.64,41.19a7.56,7.56,0,0,1,4.13-6.73V44.63H7.64Zm5.5,2.06h8.94v1.38H13.14Zm10.31,1.38V43.25h8.94v1.38Zm14.44,0H33.76V34.46a7.56,7.56,0,0,1,4.13,6.73Z"/><path class="cls-10" d="M29,8.88a.71.71,0,0,1-.55-.28,6.33,6.33,0,0,0-1.24-1.24.68.68,0,0,1-.13-1,.7.7,0,0,1,1-.14A7.5,7.5,0,0,1,29.5,7.78a.69.69,0,0,1-.14,1,.75.75,0,0,1-.41.14Z"/></g><g id="Layer_31-2" data-name="Layer 31"><path class="cls-11" d="M34.58,32.4V31.21a1,1,0,0,0-1-1h0v1a1,1,0,0,1-1,1h-.5a1,1,0,0,1-1-1v-1h0a1,1,0,0,0-1,1V32.4a1.09,1.09,0,0,0,.74,1h0a1.07,1.07,0,0,1,.74,1v6.83a1.09,1.09,0,0,1-.74,1h0a1.09,1.09,0,0,0-.74,1v1.19a1,1,0,0,0,1,1h0v-1a1,1,0,0,1,1-1h.5a1,1,0,0,1,1,1v1h0a1,1,0,0,0,1-1V43.34a1.09,1.09,0,0,0-.74-1h0a1.09,1.09,0,0,1-.74-1V34.45a1.07,1.07,0,0,1,.74-1h0A1.09,1.09,0,0,0,34.58,32.4Z"/><path class="cls-12" d="M30.88,33.43a1.07,1.07,0,0,1,.74,1v6.83a1.06,1.06,0,0,1-.05.31l.05,0a1.09,1.09,0,0,0,.74-1V33.71a1.07,1.07,0,0,0-.74-1,1.09,1.09,0,0,1-.74-1V30.47a.78.78,0,0,1,0-.22,1,1,0,0,0-.77,1V32.4A1.09,1.09,0,0,0,30.88,33.43Z"/><path class="cls-12" d="M30.88,43.79V42.6a1.06,1.06,0,0,1,0-.31l0,0a1.09,1.09,0,0,0-.74,1v1.19a1,1,0,0,0,1,1V44.45A1,1,0,0,1,30.88,43.79Z"/><path class="cls-11" d="M40.5,30.22v1a1,1,0,0,1-1,1H39a1,1,0,0,1-1-1v-1a1,1,0,0,0-1,1v1.23a1.05,1.05,0,0,0,.74,1,1.08,1.08,0,0,1,.74,1V41.7a1.07,1.07,0,0,1-.38.78,1.73,1.73,0,0,0-.61,1.37,1.75,1.75,0,0,0,1.7,1.67A1.72,1.72,0,0,0,41,43.82a1.7,1.7,0,0,0-.61-1.35A1,1,0,0,1,40,41.7V34.41a1.05,1.05,0,0,1,.74-1,1.1,1.1,0,0,0,.74-1V31.21A1,1,0,0,0,40.5,30.22Zm-.25,13.57a1,1,0,1,1-1-1A1,1,0,0,1,40.25,43.79Z"/><path class="cls-12" d="M40,44.78a1.76,1.76,0,0,1-.4-.06.81.81,0,0,1-.31.06,1,1,0,0,1-1-1,.92.92,0,0,1,.06-.33,1.51,1.51,0,0,1-.06-.37,1.73,1.73,0,0,1,.61-1.37,1.07,1.07,0,0,0,.38-.78V33.71a1.08,1.08,0,0,0-.74-1,1.05,1.05,0,0,1-.74-1V30.47a1.5,1.5,0,0,1,0-.22,1,1,0,0,0-.76,1v1.23a1.05,1.05,0,0,0,.74,1,1.08,1.08,0,0,1,.74,1V41.7a1.07,1.07,0,0,1-.38.78,1.73,1.73,0,0,0-.61,1.37,1.75,1.75,0,0,0,1.7,1.67,1.72,1.72,0,0,0,1.56-.94A1.69,1.69,0,0,1,40,44.78Z"/><path d="M33.59,30a.25.25,0,0,0-.24.25v1a.74.74,0,0,1-.74.74h-.5a.74.74,0,0,1-.74-.74v-1a.25.25,0,0,0-.24-.25,1.24,1.24,0,0,0-1.24,1.24V32.4a1.33,1.33,0,0,0,.91,1.26.84.84,0,0,1,.57.79v3.67a.25.25,0,0,0,.25.24.25.25,0,0,0,.25-.24V34.45A1.33,1.33,0,0,0,31,33.19a.82.82,0,0,1-.57-.79V31.21a.72.72,0,0,1,.49-.7v.7a1.23,1.23,0,0,0,1.23,1.23h.5a1.23,1.23,0,0,0,1.23-1.23v-.7a.74.74,0,0,1,.49.7V32.4a.83.83,0,0,1-.57.79,1.33,1.33,0,0,0-.91,1.26v6.83a1.32,1.32,0,0,0,.91,1.26.85.85,0,0,1,.57.8v1.19a.76.76,0,0,1-.49.7v-.7a1.23,1.23,0,0,0-1.23-1.23h-.5a1.23,1.23,0,0,0-1.23,1.23v.7a.74.74,0,0,1-.49-.7V43.34a.84.84,0,0,1,.57-.8,1.32,1.32,0,0,0,.91-1.26V39.1a.25.25,0,0,0-.25-.24.25.25,0,0,0-.25.24v2.18a.85.85,0,0,1-.57.8,1.32,1.32,0,0,0-.91,1.26v1.19a1.23,1.23,0,0,0,1.24,1.23.24.24,0,0,0,.24-.24v-1a.74.74,0,0,1,.74-.74h.5a.74.74,0,0,1,.74.74v1a.24.24,0,0,0,.24.24,1.24,1.24,0,0,0,1.24-1.23V43.34a1.32,1.32,0,0,0-.91-1.26.85.85,0,0,1-.57-.8V34.45a.84.84,0,0,1,.57-.79,1.33,1.33,0,0,0,.91-1.26V31.21A1.25,1.25,0,0,0,33.59,30Z"/><path d="M40.5,30a.25.25,0,0,0-.25.25v1a.74.74,0,0,1-.74.74H39a.74.74,0,0,1-.74-.74v-1A.25.25,0,0,0,38,30a1.24,1.24,0,0,0-1.23,1.24v1.23a1.29,1.29,0,0,0,.91,1.22.85.85,0,0,1,.57.79V41.7a.8.8,0,0,1-.29.59,1.94,1.94,0,0,0-.69,1.57,2,2,0,0,0,1.93,1.9h0a2,2,0,0,0,2-2,2,2,0,0,0-.7-1.51.76.76,0,0,1-.29-.58V34.41a.81.81,0,0,1,.58-.75,1.32,1.32,0,0,0,.9-1.26V31.21A1.24,1.24,0,0,0,40.5,30Zm.74,2.43a.83.83,0,0,1-.57.79,1.31,1.31,0,0,0-.91,1.22V41.7a1.25,1.25,0,0,0,.46,1,1.48,1.48,0,1,1-2.43,1.18,1.46,1.46,0,0,1,.52-1.18,1.23,1.23,0,0,0,.46-1V34.45a1.32,1.32,0,0,0-.9-1.25.83.83,0,0,1-.58-.76V31.21a.73.73,0,0,1,.5-.7v.7A1.23,1.23,0,0,0,39,32.44h.49a1.23,1.23,0,0,0,1.24-1.23v-.7a.74.74,0,0,1,.49.7Z"/><path d="M38,43.79a1.24,1.24,0,0,0,2.47,0,.25.25,0,1,0-.49,0,.74.74,0,1,1-.74-.74.69.69,0,0,1,.37.1.25.25,0,1,0,.26-.42h0A1.24,1.24,0,0,0,38,43.79Z"/><path class="cls-10" d="M34.09,32a.25.25,0,0,1-.25-.25v-.49a.25.25,0,1,1,.49,0v.49A.25.25,0,0,1,34.09,32Z"/><path class="cls-10" d="M41,32a.25.25,0,0,1-.24-.25v-.49a.25.25,0,1,1,.49,0v.49A.25.25,0,0,1,41,32Z"/></g></g></g></svg>