<svg xmlns="http://www.w3.org/2000/svg" viewBox="0 0 48 48"><defs><style>.cls-1{fill:none;}.cls-2{fill:#ffd3b6;}.cls-3{fill:#ccd3eb;}.cls-4{fill:#96a1c3;}.cls-5{fill:#f5f7ff;}.cls-6{fill:#f9b995;}.cls-7{fill:#a7d0e1;}.cls-8{fill:#80bbce;}.cls-9{fill:#e6e6e6;}.cls-10{fill:#cecece;}.cls-11{fill:#fcab68;}.cls-12{fill:#ea8e49;}.cls-13{fill:#fff;}</style></defs><g id="Layer_2" data-name="Layer 2"><g id="Layer_1-2" data-name="Layer 1"><rect class="cls-1" width="48" height="48"/><path class="cls-2" d="M22,23.73v5.4a2,2,0,1,0,4,0v-5.4Z"/><path class="cls-3" d="M39.52,37.23v8.09h-31V37.23a8.09,8.09,0,0,1,8.1-8.1H22a2,2,0,1,0,4,0h5.4A8.09,8.09,0,0,1,39.52,37.23Z"/><path class="cls-4" d="M18.6,43.3A8.09,8.09,0,0,1,12,30.58a8.09,8.09,0,0,0-3.48,6.65v8.09h31v-2Z"/><path class="cls-5" d="M17.93,27.78a1.35,1.35,0,0,1,1.35,1.35v7.42h-2.7V29.13A1.34,1.34,0,0,1,17.93,27.78Z"/><path class="cls-5" d="M30.07,27.78a1.34,1.34,0,0,1,1.35,1.35v7.42h-2.7V29.13A1.35,1.35,0,0,1,30.07,27.78Z"/><path class="cls-5" d="M34.12,45.32H13.88l2.7-8.77H31.42Z"/><path class="cls-4" d="M33.5,43.3H18.58a1.55,1.55,0,0,1-1.51-1.58,2,2,0,0,1,.07-.43l1.46-4.74h-2l-2.7,8.77H34.12Z"/><path class="cls-6" d="M8.48,42.63h4A1.35,1.35,0,0,1,13.88,44v1.34H8.48V42.63Z"/><path class="cls-2" d="M35.47,42.63h4.05v2.69h-5.4V44A1.35,1.35,0,0,1,35.47,42.63Z"/><path class="cls-6" d="M34.12,44v1.34h5.4v-2H34.31A1.34,1.34,0,0,0,34.12,44Z"/><path class="cls-6" d="M22,23.73h4v4.05H22Z"/><path class="cls-2" d="M16.61,10.77H31.46v8.78A7.42,7.42,0,0,1,24,27h0a7.43,7.43,0,0,1-7.43-7.42V10.77Z"/><path class="cls-6" d="M31.46,13.47v-2.7H16.61v8.54A7.57,7.57,0,0,0,23.77,27a7.39,7.39,0,0,0,6.43-3.28,7.41,7.41,0,0,1-4.92,1.23,7.54,7.54,0,0,1-6.64-7.57V14.82A1.35,1.35,0,0,1,20,13.47Z"/><path class="cls-6" d="M15.94,12.12h.67v4.05h-.67a2,2,0,1,1,0-4.05Z"/><path class="cls-6" d="M32.13,16.17h-.67V12.12h.67a2,2,0,1,1,0,4.05Z"/><path class="cls-7" d="M24,27a7.43,7.43,0,0,1-7.43-7.42v-.68a21.09,21.09,0,0,1,14.85,0v.68A7.42,7.42,0,0,1,24,27Z"/><path class="cls-8" d="M30.2,23.68a7.43,7.43,0,0,1-13.59-4.13v-.68c.69-.25,1.37-.46,2.06-.65A7.42,7.42,0,0,0,30.2,23.68Z"/><path class="cls-5" d="M24,2.67a7.43,7.43,0,0,1,7.42,7.43v.67H16.61V10.1A7.43,7.43,0,0,1,24,2.67Z"/><path class="cls-4" d="M25.05,2.75A7.37,7.37,0,0,0,16.69,9a7,7,0,0,0-.08,1.12v.67h2V10.1A7.42,7.42,0,0,1,25.05,2.75Z"/><path class="cls-9" d="M16.61,9.42H31.46v2.7H16.61Z"/><path class="cls-10" d="M16.61,9.42h2v2.7h-2Z"/><circle class="cls-11" cx="24.04" cy="10.77" r="2.7"/><path class="cls-12" d="M26.06,11.45a2.68,2.68,0,0,1-2.7-2.66,2.73,2.73,0,0,1,.07-.64,2.7,2.7,0,1,0,3.23,3.23A3.07,3.07,0,0,1,26.06,11.45Z"/><path d="M20.66,16.85a.69.69,0,0,0,.68-.68V15.5a.68.68,0,0,0-.68-.68.67.67,0,0,0-.67.68v.67A.68.68,0,0,0,20.66,16.85Z"/><path d="M27.41,16.85a.68.68,0,0,0,.67-.68V15.5a.67.67,0,0,0-.67-.68.68.68,0,0,0-.68.68v.67A.69.69,0,0,0,27.41,16.85Z"/><path class="cls-13" d="M29.08,7.4a.68.68,0,0,1-.56-.3,5.22,5.22,0,0,0-1.1-1.2.68.68,0,0,1-.1-1,.67.67,0,0,1,.95-.1,6.74,6.74,0,0,1,1.37,1.5.66.66,0,0,1-.18.93.64.64,0,0,1-.38.12Z"/><path d="M34.35,29a.68.68,0,0,0-.45,1.28,7.43,7.43,0,0,1,5,7V42H35.47A2,2,0,0,0,34,42.6L32.1,36.45V29.13a2,2,0,0,0-3.93-.68H26.7V27.18h0a8.08,8.08,0,0,0,5.4-7.62v-2.7a2.7,2.7,0,0,0,0-5.4V10.1a8,8,0,0,0-1.31-4.42.66.66,0,0,0-.93-.18.67.67,0,0,0-.2.92,6.57,6.57,0,0,1,.94,2.33H26.72a3.34,3.34,0,0,0-5.37,0H17.42a6.76,6.76,0,0,1,8-5.27,6.85,6.85,0,0,1,2.54,1.1.67.67,0,0,0,.82-1.07l0,0A8.09,8.09,0,0,0,15.94,10.1v1.35a2.7,2.7,0,1,0,0,5.4v2.7a8.1,8.1,0,0,0,5.36,7.61v1.29H19.83a2,2,0,0,0-3.93.68v7.32L14,42.6A2,2,0,0,0,12.53,42H9.15V37.23a7.45,7.45,0,0,1,4.95-7A.68.68,0,0,0,13.65,29,8.81,8.81,0,0,0,7.8,37.23v8.1a.68.68,0,0,0,.68.67h31a.68.68,0,0,0,.68-.67v-8.1A8.81,8.81,0,0,0,34.35,29ZM13.2,44.65h-4V43.3h3.38a.67.67,0,0,1,.67.68ZM29.4,29.13a.68.68,0,1,1,1.35,0v6.75H29.4Zm-6.75-1.62h0a7.43,7.43,0,0,0,2.66,0v1.6a1.35,1.35,0,0,1-2.7,0ZM27.34,10.1h3.44v1.35H27.34A3.41,3.41,0,0,0,27.34,10.1ZM24,8.75a2,2,0,1,1-2,2A2,2,0,0,1,24,8.75ZM17.29,10.1h3.44a3.41,3.41,0,0,0,0,1.35H17.29Zm-.68,4.05a.67.67,0,0,0-.67.67v.68a1.35,1.35,0,0,1,0-2.7h5.41a3.34,3.34,0,0,0,4.67.69,3.27,3.27,0,0,0,.7-.69h5.41a1.35,1.35,0,1,1,0,2.7v-.68a.67.67,0,0,0-.67-.67.68.68,0,0,0-.68.67v3.11a21.6,21.6,0,0,0-13.49,0V14.82A.68.68,0,0,0,16.61,14.15Zm.68,5.4v-.2a20.4,20.4,0,0,1,13.49,0v.2a6.75,6.75,0,1,1-13.49,0ZM20,29.8h1.44a2.69,2.69,0,0,0,5.22,0h1.44v6.08H20Zm-2.7-.67a.68.68,0,1,1,1.35,0v6.75H17.25ZM14.79,44.65l2.29-7.42H30.93l2.28,7.42Zm24.06,0H34.8V44a.67.67,0,0,1,.67-.68h3.38Z"/></g></g></svg>