<svg xmlns="http://www.w3.org/2000/svg" viewBox="0 0 48 48"><defs><style>.cls-1{fill:#f1f3f9;}.cls-2{fill:none;}.cls-3{fill:#ccd3eb;}.cls-4{fill:#96a1c3;}.cls-5{fill:#7a838b;}.cls-6{fill:#5d6972;}.cls-7{fill:#f8c460;}.cls-8{fill:#f9b995;}.cls-9{fill:#ffd3b6;}.cls-10{fill:#80bbce;}.cls-11{fill:#f5f7ff;}.cls-12{fill:#faaf42;}</style></defs><g id="Layer_2" data-name="Layer 2"><g id="Layer_1-2" data-name="Layer 1"><circle class="cls-1" cx="24" cy="24" r="24"/><rect class="cls-2" x="12" y="12" width="24" height="24"/><g id="Layer_31" data-name="Layer 31"><path class="cls-3" d="M19.53,28.47h7.56a4.13,4.13,0,0,1,4.13,4.12v2.07H15.4V32.59A4.13,4.13,0,0,1,19.53,28.47Z"/><path class="cls-4" d="M17.81,33.63a1.38,1.38,0,0,1-1.38-1.38v-.69a4.05,4.05,0,0,1,.75-2.35,4.12,4.12,0,0,0-1.78,3.38v2.07H31.22v-1Z"/><path class="cls-4" d="M19.53,30.19a.69.69,0,1,0,0-1.38H17.88a4.15,4.15,0,0,0-1.7,1.38Z"/><path class="cls-5" d="M23,30.19l-.69,4.47h2.06l-.69-4.47Z"/><path class="cls-6" d="M22.44,33.63l-.16,1h2.06l-.16-1Z"/><path class="cls-7" d="M16.09,28.13h3.44a.68.68,0,0,1,.69.68.69.69,0,0,1-.69.69H16.09V28.13Z"/><path class="cls-5" d="M18.15,33.28H20.9v1.38H18.15Z"/><path class="cls-6" d="M18.15,33.63H20.9v1H18.15Z"/><path class="cls-5" d="M28.47,34.66H25.72V33.28h2.75Z"/><path class="cls-6" d="M25.72,33.63h2.75v1H25.72Z"/><path class="cls-8" d="M22.28,25.72h2.06v2.75H22.28Z"/><path class="cls-9" d="M19.53,18.84h7.56v3.79a3.78,3.78,0,0,1-7.56,0V18.84Z"/><path class="cls-8" d="M27.09,19.53v-.69H19.53v3.67a3.85,3.85,0,0,0,3.64,3.89,3.77,3.77,0,0,0,3.28-1.67,3.76,3.76,0,0,1-2.77.59,3.84,3.84,0,0,1-3.12-3.82v-.28a.69.69,0,0,1,.69-.68.62.62,0,0,1,.23,0A5.83,5.83,0,0,0,27.09,19.53Z"/><path class="cls-3" d="M27.09,17.47H19.53v1.37a5.87,5.87,0,0,0,7.56,0Z"/><path class="cls-10" d="M20.56,18.84V17.47h-1v1.37a6.14,6.14,0,0,0,4.3,1.35A6.67,6.67,0,0,1,20.56,18.84Z"/><path class="cls-8" d="M19.18,19.53h.35v2.06h-.35a1,1,0,1,1,0-2.06Z"/><path class="cls-8" d="M27.43,21.59h-.34V19.53h.34a1,1,0,1,1,0,2.06Z"/><path class="cls-6" d="M22.28,29.5l1-1,1,1-1,1Z"/><path class="cls-5" d="M19.53,17.47h7.56v1.37H19.53Z"/><path class="cls-6" d="M19.53,17.47h1v1.37h-1Z"/><path class="cls-11" d="M27.09,14.38l-3.78-1-3.78,1-1.38,1.71,1.38,1.38h7.56l1.38-1.38Z"/><path class="cls-3" d="M27.78,16.44H21.92A4.13,4.13,0,0,1,19,15.23l-.09-.09-.77.95,1.38,1.38h7.56l1.38-1.38-.16-.19Z"/><circle class="cls-5" cx="23.31" cy="15.41" r="0.69"/><path class="cls-3" d="M22.28,27.09l-1,1.38.34,2.06,1.72-2.06Z"/><path class="cls-3" d="M24.34,27.09l1,1.38L25,30.53l-1.72-2.06Z"/><path class="cls-12" d="M16.09,28.13h1V29.5h-1Z"/><path d="M26,28.13h-.43L24.68,27v-.47a4.12,4.12,0,0,0,2.75-3.88v-.69a1.38,1.38,0,1,0,0-2.75V17.61l1.28-1.27a.35.35,0,0,0,0-.46l-1.37-1.72a.36.36,0,0,0-.18-.12L23.4,13h-.18l-3.78,1a.36.36,0,0,0-.18.12l-1.37,1.72a.35.35,0,0,0,0,.46l1.27,1.27v1.58a1.38,1.38,0,0,0,0,2.75v.69a4.14,4.14,0,0,0,2.75,3.88V27l-.85,1.15h-.79a1,1,0,0,0-.76-.35H16.09a.35.35,0,0,0-.34.35V29.5a.34.34,0,0,0,.34.34h3.44a1,1,0,0,0,1-1H21l.29,1.78a.33.33,0,0,0,.25.27l.09,0a.41.41,0,0,0,.27-.13l.54-.65.2.21-.62,4h-.73v-1a.35.35,0,0,0-.35-.34H18.15a.34.34,0,0,0-.34.34v1H15.75V32.59A3.7,3.7,0,0,1,16.09,31a.35.35,0,0,0-.17-.46.34.34,0,0,0-.45.17,4.46,4.46,0,0,0-.41,1.86v2.07a.34.34,0,0,0,.34.34H31.22a.34.34,0,0,0,.34-.34V32.59a4.46,4.46,0,0,0-.41-1.86.34.34,0,0,0-.45-.17.35.35,0,0,0-.17.46,3.7,3.7,0,0,1,.34,1.57v1.72H28.81v-1a.34.34,0,0,0-.34-.34H25.72a.35.35,0,0,0-.35.34v1h-.73l-.62-4,.2-.21.54.65a.41.41,0,0,0,.27.13l.09,0a.33.33,0,0,0,.25-.27l.29-1.78H26a.34.34,0,0,0,.34-.33h0A.34.34,0,0,0,26,28.13Zm-6.44,1h-3.1v-.69h3.1a.34.34,0,0,1,.34.34A.35.35,0,0,1,19.53,29.16Zm5.28.58-.29-.36h0l-.76-.91.59-.79.67.89ZM19.73,14.68l3.58-1,3.58,1L28,16.07,27,17.13H25.72a.34.34,0,1,0,0,.68h1v.69H19.87v-.69h4.47a.34.34,0,0,0,0-.68H19.67l-1.06-1.06Zm6.17,4.51a5.21,5.21,0,0,1-5.18,0Zm-6,3.44V20.91a.35.35,0,0,0-.34-.35.35.35,0,0,0-.35.35v.34a.69.69,0,0,1-.68-.69.68.68,0,0,1,.68-.68h.35a.35.35,0,0,0,.34-.35v0a6.06,6.06,0,0,0,6.88,0v0a.35.35,0,0,0,.34.35h.34a.68.68,0,0,1,.69.68.69.69,0,0,1-.69.69v-.34a.34.34,0,1,0-.68,0v1.72a3.44,3.44,0,0,1-6.88,0Zm3.44,4.12a4,4,0,0,0,.69-.06V27l-.69.92L22.62,27v-.29A4,4,0,0,0,23.31,26.75Zm-1.5,3-.2-1.18.67-.89.59.79-.76.91h0Zm1.5-.73.47.56-.47.48-.47-.48Zm-4.81,5.3v-.68h2.06v.68Zm4.18,0,.53-3.45a.34.34,0,0,0,.2,0l.53,3.45Zm3.38,0v-.68h2.06v.68Z"/><path d="M23.31,16.44a1,1,0,1,0-1-1A1,1,0,0,0,23.31,16.44Zm0-1.38a.35.35,0,0,1,.34.35.34.34,0,0,1-.68,0A.35.35,0,0,1,23.31,15.06Z"/><path d="M21.59,20.91a.34.34,0,0,0-.34.34v.34a.34.34,0,1,0,.68,0v-.34A.34.34,0,0,0,21.59,20.91Z"/><path d="M25,21.94a.35.35,0,0,0,.34-.35v-.34a.34.34,0,0,0-.34-.34.35.35,0,0,0-.35.34v.34A.35.35,0,0,0,25,21.94Z"/><path class="cls-3" d="M26.06,15.15H26L25.28,15a.35.35,0,0,1,.17-.67h0l.69.18a.35.35,0,0,1,.24.43A.33.33,0,0,1,26.06,15.15Z"/></g><g id="Shield"><path class="cls-3" d="M29.88,34.84A4,4,0,0,1,27,31V28.19l2.9-.83,2.91.83V31A4,4,0,0,1,29.88,34.84Z"/><path class="cls-4" d="M29.88,27.36l2.91.83V31a4,4,0,0,1-2.91,3.86S29.88,35.07,29.88,27.36Z"/><path class="cls-7" d="M32.24,28.61V31a3.49,3.49,0,0,1-2.36,3.28A3.48,3.48,0,0,1,27.53,31V28.61l2.35-.67Z"/><path class="cls-12" d="M32.24,28.61V31a3.49,3.49,0,0,1-2.36,3.28,3.53,3.53,0,0,1-1.51-1A4.71,4.71,0,0,0,32.24,28.61Z"/><path d="M29.85,35a4.18,4.18,0,0,1-3-4V28.19a.14.14,0,0,1,.1-.14,29,29,0,0,1,3-.83l2.91.83a.15.15,0,0,1,.1.14c0,2.86.12,3.55-.45,4.66a.13.13,0,0,1-.19,0,.14.14,0,0,1,0-.17c.52-1,.41-1.59.41-4.43l-2.77-.8-2.77.79V31a3.89,3.89,0,0,0,2.77,3.72A3.92,3.92,0,0,0,32,33.19a.13.13,0,0,1,.2,0,.14.14,0,0,1,0,.18A4.22,4.22,0,0,1,29.92,35Z"/><path d="M29.84,34.39A3.6,3.6,0,0,1,27.39,31V28.61a.13.13,0,0,1,.1-.14l.83-.24a.14.14,0,0,1,.17.11.16.16,0,0,1-.09.16l-.73.21V31a3.32,3.32,0,0,0,2.21,3.13A3.32,3.32,0,0,0,32.1,31V28.71l-2.22-.63-.95.28a.16.16,0,0,1-.17-.11.15.15,0,0,1,.09-.16c1.08-.31,1-.3,1.07-.29l2.36.68a.16.16,0,0,1,.1.13V31A3.53,3.53,0,0,1,29.84,34.39Z"/></g></g></g></svg>