<svg xmlns="http://www.w3.org/2000/svg" viewBox="0 0 48 48"><defs><style>.cls-1{fill:#f1f3f9;}.cls-2{fill:none;}.cls-3{fill:#ffd3b6;}.cls-4{fill:#ccd3eb;}.cls-5{fill:#96a1c3;}.cls-6{fill:#7a838b;}.cls-7{fill:#5d6972;}.cls-8{fill:#fcab68;}.cls-9{fill:#ea8e49;}.cls-10{fill:#f9b995;}.cls-11{fill:#fff;}.cls-12{fill:#e6e6e6;}.cls-13{fill:#cecece;}</style></defs><g id="Layer_2" data-name="Layer 2"><g id="Layer_1-2" data-name="Layer 1"><circle class="cls-1" cx="24" cy="24" r="24"/><rect class="cls-2" x="12" y="12" width="24" height="24"/><g id="Layer_31" data-name="Layer 31"><path class="cls-3" d="M22.35,25.72h2.06V29.5H22.35Z"/><path class="cls-4" d="M31.29,32.59v2.07H15.48V32.59a4.12,4.12,0,0,1,4.12-4.12h2.75a1,1,0,0,0,2.06,0h2.75A4.13,4.13,0,0,1,31.29,32.59Z"/><path class="cls-5" d="M18.57,33.63a2.07,2.07,0,0,1-2.06-2.07,4.12,4.12,0,0,1,.74-2.35,4.11,4.11,0,0,0-1.77,3.38v2.07H31.29v-1Z"/><path class="cls-6" d="M28.54,28.71v5.95H18.23V28.71a4,4,0,0,1,1.37-.24H21l2.4,3.44,2.41-3.44h1.37a4,4,0,0,1,1.38.24Z"/><path class="cls-7" d="M22,33.63a2.75,2.75,0,0,1-2.75-2.75V29.83a1.36,1.36,0,0,1,1.33-1.38h-1a4,4,0,0,0-1.37.24v6H28.54v-1Z"/><path class="cls-8" d="M18.23,31.91H28.54v1.37H18.23Z"/><path class="cls-9" d="M19.46,31.91H18.23v1.37h2.45a2.76,2.76,0,0,1-1.22-1.37Z"/><path class="cls-3" d="M19.6,18.16h7.56v4.47a3.78,3.78,0,0,1-7.56,0V18.16Z"/><path class="cls-10" d="M27.16,20.22V18.84H19.6V22.5a3.86,3.86,0,0,0,3.63,3.9,3.75,3.75,0,0,0,3.29-1.67,3.76,3.76,0,0,1-2.77.59,3.84,3.84,0,0,1-3.12-3.82v-.59a.69.69,0,0,1,.69-.69Z"/><path class="cls-8" d="M23,14h.69a4.13,4.13,0,0,1,4.12,4.13v.68H18.91v-.68A4.13,4.13,0,0,1,23,14Z"/><path class="cls-10" d="M19.26,19.53h.34v2.06h-.34a1,1,0,1,1,0-2.06Z"/><path class="cls-10" d="M27.51,21.59h-.35V19.53h.35a1,1,0,0,1,0,2.06Z"/><path class="cls-8" d="M23.38,13.34a1,1,0,0,1,1,1v5.15H22.35V14.38A1,1,0,0,1,23.38,13.34Z"/><path class="cls-9" d="M23.9,13.49a1.08,1.08,0,0,0-.52-.15,1,1,0,0,0-1,1v5.15h1V14.38A1,1,0,0,1,23.9,13.49Z"/><path class="cls-9" d="M27.79,17.47H20.93a.69.69,0,0,1-.69-.69.62.62,0,0,1,.05-.27A4.12,4.12,0,0,1,23.9,14H23a4.13,4.13,0,0,0-4.11,3.77c0,.12,0,.24,0,.36v.68h8.94v-.68A4,4,0,0,0,27.79,17.47Z"/><path class="cls-8" d="M18.91,18.16h8.94a.68.68,0,0,1,.69.68h0a.69.69,0,0,1-.69.69H18.91a.68.68,0,0,1-.68-.69h0A.67.67,0,0,1,18.91,18.16Z"/><path class="cls-9" d="M19.26,18.84a.68.68,0,0,1,.69-.68h-1a.67.67,0,0,0-.68.68.68.68,0,0,0,.68.69h1A.69.69,0,0,1,19.26,18.84Z"/><path class="cls-10" d="M22.35,27a3.79,3.79,0,0,0,2.06,0v-.89H22.35Z"/><path d="M21.66,20.91a.34.34,0,0,0-.34.34v.34a.35.35,0,0,0,.34.35.35.35,0,0,0,.35-.35v-.34A.35.35,0,0,0,21.66,20.91Z"/><path d="M25.1,21.94a.35.35,0,0,0,.34-.35v-.34a.34.34,0,0,0-.68,0v.34A.35.35,0,0,0,25.1,21.94Z"/><path d="M28.68,28.4h0a4.21,4.21,0,0,0-1.49-.26h-2.4V26.51a4.14,4.14,0,0,0,2.75-3.88v-.69a1.37,1.37,0,0,0,1-2.31,1,1,0,0,0-.33-1.76,4.46,4.46,0,0,0-3.56-4.09,1.37,1.37,0,0,0-2.47,0,4.45,4.45,0,0,0-3.57,4.09,1,1,0,0,0-.65,1.29,1.1,1.1,0,0,0,.32.47,1.38,1.38,0,0,0,.06,1.94,1.4,1.4,0,0,0,1,.37v.69A4.12,4.12,0,0,0,22,26.51v1.62H19.6a4.21,4.21,0,0,0-1.49.26h0a4.47,4.47,0,0,0-2.95,4.19v2.07a.35.35,0,0,0,.35.34H31.29a.34.34,0,0,0,.34-.34V32.59a4.46,4.46,0,0,0-2.95-4.19Zm-5.3,1.44a1.36,1.36,0,0,0,1.33-1h.42l-1.75,2.5-1.74-2.5h.41A1.38,1.38,0,0,0,23.38,29.84Zm.35,2.41h4.46v.69H23.73ZM28.19,29v2.6H24L26,28.81h1.19a3.57,3.57,0,0,1,1,.15Zm-.7-11.15H24.76V14.52A3.77,3.77,0,0,1,27.49,17.81Zm-4.11-4.12a.69.69,0,0,1,.69.69v3.43H22.69V14.38A.69.69,0,0,1,23.38,13.69ZM22,14.52v3.29H19.27A3.76,3.76,0,0,1,22,14.52ZM20,22.63V20.91a.35.35,0,0,0-.35-.35.35.35,0,0,0-.34.35v.34a.69.69,0,0,1-.69-.69.68.68,0,0,1,.69-.68h5.15a.35.35,0,0,0,.35-.35.35.35,0,0,0-.35-.34h-5.5a.35.35,0,0,1-.34-.35.34.34,0,0,1,.34-.34h8.94a.34.34,0,0,1,.34.34.35.35,0,0,1-.34.35H25.79a.35.35,0,0,0-.35.34.35.35,0,0,0,.35.35h1.72a.67.67,0,0,1,.68.68.68.68,0,0,1-.68.69v-.34a.35.35,0,0,0-.35-.35.35.35,0,0,0-.34.35v1.72a3.44,3.44,0,0,1-6.87,0Zm3.43,4.12a4,4,0,0,0,.69-.06v1.78a.69.69,0,1,1-1.38,0V26.69A4,4,0,0,0,23.38,26.75ZM20.8,28.81l1.92,2.75H21a.35.35,0,0,0-.35.35.35.35,0,0,0,.35.34H23v.69H18.57v-.69h1a.35.35,0,0,0,.35-.34.35.35,0,0,0-.35-.35h-1V29a3.62,3.62,0,0,1,1-.15Zm-5,3.78a3.78,3.78,0,0,1,2.06-3.36v5.08H15.82Zm2.75,1H23v.68H18.57Zm5.16.68v-.68h4.46v.68Zm7.21,0H28.88V29.23a3.76,3.76,0,0,1,2.06,3.36Z"/><path class="cls-11" d="M26.48,16.44a.35.35,0,0,1-.28-.14,3,3,0,0,0-.62-.62.34.34,0,0,1,.41-.55,3.91,3.91,0,0,1,.76.76.35.35,0,0,1-.07.48.37.37,0,0,1-.2.07Z"/></g><g id="Layer_31-2" data-name="Layer 31"><path class="cls-12" d="M29.29,28.2v-.6a.49.49,0,0,0-.49-.49h0v.49a.5.5,0,0,1-.5.5h-.24a.5.5,0,0,1-.5-.5v-.49h0a.49.49,0,0,0-.49.49v.6a.54.54,0,0,0,.37.51h0a.55.55,0,0,1,.37.52v3.41a.54.54,0,0,1-.37.51h0a.56.56,0,0,0-.37.52v.6a.49.49,0,0,0,.49.49h0v-.49a.5.5,0,0,1,.5-.5h.24a.5.5,0,0,1,.5.5v.49h0a.49.49,0,0,0,.49-.49v-.6a.56.56,0,0,0-.37-.52h0a.54.54,0,0,1-.37-.51V29.23a.55.55,0,0,1,.37-.52h0A.54.54,0,0,0,29.29,28.2Z"/><path class="cls-13" d="M27.44,28.71a.55.55,0,0,1,.37.52v3.41a.77.77,0,0,1,0,.15h0a.54.54,0,0,0,.37-.51V28.86a.55.55,0,0,0-.37-.52.54.54,0,0,1-.37-.51v-.6a.45.45,0,0,1,0-.11.49.49,0,0,0-.38.48v.6A.54.54,0,0,0,27.44,28.71Z"/><path class="cls-13" d="M27.44,33.9v-.6a.68.68,0,0,1,0-.15h0a.56.56,0,0,0-.37.52v.6a.49.49,0,0,0,.49.49v-.49s0,0,0-.05A.48.48,0,0,1,27.44,33.9Z"/><path class="cls-12" d="M32.25,27.11v.49a.49.49,0,0,1-.49.5h-.25a.49.49,0,0,1-.49-.5v-.49a.49.49,0,0,0-.5.49v.62a.53.53,0,0,0,.38.49.55.55,0,0,1,.36.52v3.62a.51.51,0,0,1-.19.39.86.86,0,0,0-.3.69.87.87,0,0,0,.85.83.86.86,0,0,0,.57-1.52.54.54,0,0,1-.19-.39V29.21a.55.55,0,0,1,.38-.5.53.53,0,0,0,.36-.51v-.6A.49.49,0,0,0,32.25,27.11Zm-.12,6.79a.5.5,0,1,1-.5-.5A.49.49,0,0,1,32.13,33.9Z"/><path class="cls-13" d="M32,34.39a.69.69,0,0,1-.2,0,.41.41,0,0,1-.16,0,.48.48,0,0,1-.49-.48.47.47,0,0,1,0-.17.57.57,0,0,1,0-.18.86.86,0,0,1,.3-.69.51.51,0,0,0,.19-.39V28.86a.55.55,0,0,0-.36-.52.53.53,0,0,1-.38-.49v-.62a.52.52,0,0,1,0-.11.49.49,0,0,0-.39.48v.62a.53.53,0,0,0,.38.49.55.55,0,0,1,.36.52v3.62a.51.51,0,0,1-.19.39.86.86,0,0,0-.3.69.86.86,0,0,0,1.63.36A.86.86,0,0,1,32,34.39Z"/><path d="M28.8,27a.12.12,0,0,0-.13.12v.49a.36.36,0,0,1-.37.37h-.24a.36.36,0,0,1-.37-.37v-.49a.12.12,0,0,0-.13-.12.61.61,0,0,0-.61.61v.6a.66.66,0,0,0,.45.63.43.43,0,0,1,.29.4v1.83a.12.12,0,0,0,.24,0V29.23a.66.66,0,0,0-.45-.63.43.43,0,0,1-.29-.4v-.6a.39.39,0,0,1,.25-.35v.35a.62.62,0,0,0,.62.62h.24a.62.62,0,0,0,.62-.62v-.35a.39.39,0,0,1,.25.35v.6a.43.43,0,0,1-.29.4.66.66,0,0,0-.45.63v3.41a.66.66,0,0,0,.45.63.43.43,0,0,1,.29.4v.6a.36.36,0,0,1-.25.34v-.34a.62.62,0,0,0-.62-.62h-.24a.62.62,0,0,0-.62.62v.34a.36.36,0,0,1-.25-.34v-.6a.43.43,0,0,1,.29-.4.66.66,0,0,0,.45-.63V31.55a.12.12,0,0,0-.24,0v1.09a.43.43,0,0,1-.29.4.66.66,0,0,0-.45.63v.6a.61.61,0,0,0,.61.61.12.12,0,0,0,.13-.12v-.49a.36.36,0,0,1,.37-.37h.24a.36.36,0,0,1,.37.37v.49a.12.12,0,0,0,.13.12.61.61,0,0,0,.61-.61v-.6A.66.66,0,0,0,29,33a.43.43,0,0,1-.29-.4V29.23a.43.43,0,0,1,.29-.4.66.66,0,0,0,.45-.63v-.6A.61.61,0,0,0,28.8,27Z"/><path d="M32.25,27a.12.12,0,0,0-.12.12v.49a.37.37,0,0,1-.37.37h-.25a.37.37,0,0,1-.37-.37v-.49A.12.12,0,0,0,31,27a.61.61,0,0,0-.62.61v.62a.64.64,0,0,0,.46.61.42.42,0,0,1,.28.4v3.62a.38.38,0,0,1-.15.29,1,1,0,0,0-.34.79,1,1,0,0,0,1,1h0a1,1,0,0,0,1-1,1,1,0,0,0-.35-.76.37.37,0,0,1-.14-.29V29.21a.4.4,0,0,1,.29-.38.67.67,0,0,0,.45-.63v-.6A.61.61,0,0,0,32.25,27Zm.37,1.21a.42.42,0,0,1-.28.4.63.63,0,0,0-.46.61v3.64a.63.63,0,0,0,.23.48.74.74,0,0,1,.09,1,.74.74,0,1,1-1.05-1,.64.64,0,0,0,.24-.48V29.23a.66.66,0,0,0-.45-.63.4.4,0,0,1-.29-.38V27.6a.39.39,0,0,1,.24-.35v.35a.62.62,0,0,0,.62.62h.25a.61.61,0,0,0,.61-.62v-.35a.39.39,0,0,1,.25.35Z"/><path d="M31,33.9a.61.61,0,0,0,.61.61.61.61,0,0,0,.62-.61.12.12,0,0,0-.12-.13.13.13,0,0,0-.13.13.35.35,0,0,1-.37.36.37.37,0,0,1-.37-.37.38.38,0,0,1,.37-.37.41.41,0,0,1,.19,0,.13.13,0,0,0,.17,0,.12.12,0,0,0,0-.17h0a.61.61,0,0,0-.84.23A.65.65,0,0,0,31,33.9Z"/><path class="cls-11" d="M29,28a.12.12,0,0,1-.12-.12V27.6a.12.12,0,0,1,.12-.12.13.13,0,0,1,.13.12v.25A.12.12,0,0,1,29,28Z"/><path class="cls-11" d="M32.5,28a.12.12,0,0,1-.13-.12V27.6a.13.13,0,0,1,.13-.12.12.12,0,0,1,.12.12v.25A.12.12,0,0,1,32.5,28Z"/></g></g></g></svg>