<svg xmlns="http://www.w3.org/2000/svg" xmlns:xlink="http://www.w3.org/1999/xlink" width="74" height="74" viewBox="0 0 74 74">
  <defs>
    <filter id="Path_13048" x="0" y="0" width="74" height="74" filterUnits="userSpaceOnUse">
      <feOffset dy="3" input="SourceAlpha"/>
      <feGaussianBlur stdDeviation="3" result="blur"/>
      <feFlood flood-opacity="0.161"/>
      <feComposite operator="in" in2="blur"/>
      <feComposite in="SourceGraphic"/>
    </filter>
  </defs>
  <g id="Group_1767" data-name="Group 1767" transform="translate(-331 -690)">
    <g transform="matrix(1, 0, 0, 1, 331, 690)" filter="url(#Path_13048)">
      <path id="Path_13048-2" data-name="Path 13048" d="M28,0A28,28,0,1,1,0,28,28,28,0,0,1,28,0Z" transform="translate(9 6)" fill="#0599ff"/>
    </g>
    <g id="add_black_48dp_1_" data-name="add_black_48dp (1)" transform="translate(350 706)">
      <path id="Path_1193" data-name="Path 1193" d="M0,0H36V36H0Z" fill="none"/>
      <path id="Path_1194" data-name="Path 1194" d="M24.5,17H17v7.5a1.5,1.5,0,0,1-3,0V17H6.5a1.5,1.5,0,0,1,0-3H14V6.5a1.5,1.5,0,0,1,3,0V14h7.5a1.5,1.5,0,0,1,0,3Z" transform="translate(2.5 2.5)" fill="#fff"/>
    </g>
  </g>
</svg>
