<svg xmlns="http://www.w3.org/2000/svg" width="48" height="48" viewBox="0 0 48 48">
  <g id="Group_5032" data-name="Group 5032" transform="translate(-33 -265)">
    <circle id="Ellipse_461" data-name="Ellipse 461" cx="24" cy="24" r="24" transform="translate(33 265)" fill="#f1f3f9"/>
    <g id="Flat" transform="translate(-14.034 247.561)">
      <path id="Path_13093" data-name="Path 13093" d="M72,448H99.662v3.007H72Z" transform="translate(-14.797 -392.129)" fill="#26324a"/>
      <path id="Path_13094" data-name="Path 13094" d="M144,24h16.838V34.223H144Z" transform="translate(-81.385 0)" fill="#f9fdfe"/>
      <path id="Path_13095" data-name="Path 13095" d="M86.067,174.851H56V157.337L57.2,152H84.865l1.2,5.337Z" transform="translate(0 -118.378)" fill="#4b566c"/>
      <path id="Path_13116" data-name="Path 13116" d="M8.781,0a8.987,8.987,0,0,1,8.781,9.18,8.987,8.987,0,0,1-8.781,9.18A8.987,8.987,0,0,1,0,9.18,8.987,8.987,0,0,1,8.781,0Z" transform="translate(62.386 35.974)" fill="#f9fdfe"/>
      <path id="Path_13096" data-name="Path 13096" d="M196.555,233.013l-.609-1.037,3.913-2.3V224h1.2v6.02a.6.6,0,0,1-.3.519Z" transform="translate(-129.427 -184.966)" fill="#4b566c"/>
      <g id="Group_4974" data-name="Group 4974" transform="translate(62.013 36.027)">
        <path id="Path_13097" data-name="Path 13097" d="M136,296h1.8v1.2H136Z" transform="translate(-136 -287.581)" fill="#ffb703"/>
        <path id="Path_13098" data-name="Path 13098" d="M352,296h1.8v1.2H352Z" transform="translate(-335.764 -287.581)" fill="#ffb703"/>
        <path id="Path_13099" data-name="Path 13099" d="M0,0H1.8V1.2H0Z" transform="matrix(0.866, -0.5, 0.5, 0.866, 0.908, 13.009)" fill="#ffb703"/>
        <path id="Path_13100" data-name="Path 13100" d="M0,0H1.8V1.2H0Z" transform="matrix(0.866, -0.5, 0.5, 0.866, 14.968, 4.891)" fill="#ffb703"/>
        <path id="Path_13101" data-name="Path 13101" d="M0,0H1.8V1.2H0Z" transform="matrix(0.5, -0.866, 0.866, 0.5, 3.989, 16.532)" fill="#ffb703"/>
        <path id="Path_13102" data-name="Path 13102" d="M0,0H1.8V1.2H0Z" transform="matrix(0.5, -0.866, 0.866, 0.5, 12.107, 2.471)" fill="#ffb703"/>
        <path id="Path_13103" data-name="Path 13103" d="M248,400h1.2v1.8H248Z" transform="translate(-239.581 -383.764)" fill="#ffb703"/>
        <path id="Path_13104" data-name="Path 13104" d="M248,184h1.2v1.8H248Z" transform="translate(-239.581 -184)" fill="#ffb703"/>
        <path id="Path_13105" data-name="Path 13105" d="M0,0H1.2V1.8H0Z" transform="matrix(0.866, -0.5, 0.5, 0.866, 12.107, 15.57)" fill="#ffb703"/>
        <path id="Path_13106" data-name="Path 13106" d="M0,0H1.2V1.8H0Z" transform="matrix(0.866, -0.5, 0.5, 0.866, 3.989, 1.509)" fill="#ffb703"/>
        <path id="Path_13107" data-name="Path 13107" d="M0,0H1.2V1.8H0Z" transform="matrix(0.5, -0.866, 0.866, 0.5, 14.968, 13.149)" fill="#ffb703"/>
        <path id="Path_13108" data-name="Path 13108" d="M0,0H1.2V1.8H0Z" transform="matrix(0.5, -0.866, 0.866, 0.5, 0.907, 5.031)" fill="#ffb703"/>
      </g>
      <path id="Path_13109" data-name="Path 13109" d="M137.622,195.243a9.622,9.622,0,1,1,9.622-9.622A9.622,9.622,0,0,1,137.622,195.243Zm0-18.04a8.419,8.419,0,1,0,8.419,8.419,8.419,8.419,0,0,0-8.419-8.419Z" transform="translate(-66.588 -140.574)" fill="#ffdb6b"/>
      <circle id="Ellipse_473" data-name="Ellipse 473" cx="1.197" cy="1.197" r="1.197" transform="translate(59.193 35.974)" fill="#ffe082"/>
      <path id="Path_13110" data-name="Path 13110" d="M184,80h2.405v1.2H184Z" transform="translate(-118.378 -51.791)" fill="#4b566c"/>
      <path id="Path_13111" data-name="Path 13111" d="M184,112h2.405v1.2H184Z" transform="translate(-118.378 -81.385)" fill="#4b566c"/>
      <path id="Path_13112" data-name="Path 13112" d="M240,80h6.615v1.2H240Z" transform="translate(-170.169 -51.791)" fill="#4b566c"/>
      <path id="Path_13113" data-name="Path 13113" d="M184,48h2.405v1.2H184Z" transform="translate(-118.378 -22.196)" fill="#4b566c"/>
      <path id="Path_13114" data-name="Path 13114" d="M240,48h6.615v1.2H240Z" transform="translate(-170.169 -22.196)" fill="#4b566c"/>
      <path id="Path_13115" data-name="Path 13115" d="M240,112h6.615v1.2H240Z" transform="translate(-170.169 -81.385)" fill="#4b566c"/>
    </g>
  </g>
</svg>
