<svg xmlns="http://www.w3.org/2000/svg" xmlns:xlink="http://www.w3.org/1999/xlink" width="96" height="96" viewBox="0 0 96 96">
  <defs>
    <clipPath id="clip-path">
      <rect id="Rectangle_1886" data-name="Rectangle 1886" width="96" height="96" transform="translate(0.068)" fill="#282f3d"/>
    </clipPath>
  </defs>
  <g id="home_1" data-name="home 1" transform="translate(-0.068)">
    <g id="Group_83" data-name="Group 83" transform="translate(0)" clip-path="url(#clip-path)">
      <path id="Path_114" data-name="Path 114" d="M72.775,35.913c-1.126-3.118-3.454-5.446-6.975-8.967L46.832,7.537A10.318,10.318,0,0,0,32.2,7.543l-18.96,19.4C9.72,30.468,7.39,32.8,6.266,35.913,5.245,38.746,5.247,42,5.25,47.4V62.717A10.336,10.336,0,0,0,15.574,73.041H63.467A10.336,10.336,0,0,0,73.791,62.717V47.4c0-5.395.005-8.652-1.016-11.485M31.868,50.261a4.058,4.058,0,0,1,2.871-1.167H44.3a4.052,4.052,0,0,1,2.868,1.167,4,4,0,0,1,1.191,2.873L48.356,66.77H30.683l0-13.636a4.005,4.005,0,0,1,1.188-2.873M51.619,45.85A10.27,10.27,0,0,0,44.3,42.821H34.739A10.32,10.32,0,0,0,24.407,53.137l0,13.633H15.574a4.056,4.056,0,0,1-4.051-4.053V48.364c0-5.612.03-8.62.645-10.324.594-1.653,1.992-3.15,5.548-6.709L36.658,11.97a4.023,4.023,0,0,1,5.723,0L61.328,31.336c3.553,3.553,4.951,5.051,5.545,6.7.616,1.7.645,4.712.645,10.324V62.717a4.056,4.056,0,0,1-4.051,4.053H54.632l0-13.633a10.235,10.235,0,0,0-3.016-7.287" transform="translate(8.202 7.595)" fill="#282f3d"/>
    </g>
  </g>
</svg>
