<svg xmlns="http://www.w3.org/2000/svg" width="95" height="96" viewBox="0 0 95 96">
  <g id="officers" transform="translate(0.049)">
    <rect id="Rectangle_3663" data-name="Rectangle 3663" width="95" height="96" transform="translate(-0.049)" fill="#878e9c" opacity="0"/>
    <path id="Path_63" data-name="Path 63" d="M69.05,30.22c5.919,0,10.913,2.564,10.913,5.553a4.492,4.492,0,0,1-2.487,3.509l-.386.212h-.135a18.529,18.529,0,0,1-15.945,0h-.116l-.347-.212a4.473,4.473,0,0,1-2.487-3.509C58.137,32.726,63.131,30.22,69.05,30.22Zm-22,5.63c5.129,0,9.486,2.217,9.486,4.8A3.856,3.856,0,0,1,54.378,43.7a1.926,1.926,0,0,1-.347.193h-.116a14.981,14.981,0,0,1-6.864,1.542,14.981,14.981,0,0,1-6.98-1.6h-.1a1.139,1.139,0,0,0-.212-.154,3.856,3.856,0,0,1-2.179-3.046C37.584,38.067,41.922,35.85,47.051,35.85Zm7.4,10.508a7.365,7.365,0,0,1-7.4,7.4h0a7.423,7.423,0,0,1-7.4-7.4,5.939,5.939,0,0,1,.116-1.176h0a.965.965,0,0,0,0-.231,1.021,1.021,0,0,1,.193.116A14.673,14.673,0,0,0,47.013,46.7a14.691,14.691,0,0,0,6.864-1.542,1.928,1.928,0,0,0,.4-.212.521.521,0,0,0,0,.231h0A7.865,7.865,0,0,1,54.455,46.358ZM25.071,30.22c5.919,0,10.913,2.564,10.913,5.553a4.473,4.473,0,0,1-2.429,3.509l-.27.135h-.116a17.082,17.082,0,0,1-8.04,1.832,17.1,17.1,0,0,1-7.905-1.774h-.135l-.386-.212a4.492,4.492,0,0,1-2.487-3.509C14.158,32.726,19.152,30.22,25.071,30.22Zm3.683,26.414a11.087,11.087,0,0,0-2.68,6.941v4.2a2.217,2.217,0,0,1-2.159,2.14h-13.4A4.357,4.357,0,0,1,6.176,65.5V62.8c0-6.613,13.265-9.929,19.9-9.929h1.234a2.217,2.217,0,0,1,1.446,3.76ZM25.071,50.85h0a8.464,8.464,0,0,1-8.522-8.483,10.336,10.336,0,0,1,.1-1.35h0a1.31,1.31,0,0,0,0-.27,3.857,3.857,0,0,0,.482.251,16.987,16.987,0,0,0,7.905,1.774,16.851,16.851,0,0,0,8.136-1.928l.231-.135v.27h0a10.335,10.335,0,0,1,.154,1.388,8.522,8.522,0,0,1-8.483,8.483ZM62.707,67.74a2.2,2.2,0,0,1-2.159,2.179H33.555a2.2,2.2,0,0,1-2.2-2.179V63.575c0-5.186,10.431-7.712,15.637-7.712s15.656,2.622,15.656,7.712ZM60.548,42.367a10.337,10.337,0,0,1,.1-1.35h0a1.427,1.427,0,0,1,0-.27l.212.135a18.312,18.312,0,0,0,16.041.154,3.852,3.852,0,0,0,.482-.251,1.311,1.311,0,0,0,0,.27h0a10.326,10.326,0,0,1,.116,1.35,8.483,8.483,0,0,1-8.445,8.522h-.1A8.522,8.522,0,0,1,60.548,42.367ZM87.945,65.5a4.357,4.357,0,0,1-4.261,4.415h-13.5a2.217,2.217,0,0,1-2.2-2.2V63.575a11.106,11.106,0,0,0-2.7-6.883,2.217,2.217,0,0,1,1.465-3.721H67.99c6.633,0,19.9,3.316,19.9,9.929Z" transform="translate(2.908 -2.307)" fill="#878e9c"/>
  </g>
</svg>
