<svg xmlns="http://www.w3.org/2000/svg" viewBox="0 0 48 48"><defs><style>.cls-1{fill:#f1f3f9;}.cls-2{fill:none;}.cls-3{fill:#ccd3eb;}.cls-4{fill:#96a1c3;}.cls-5{fill:#7a838b;}.cls-6{fill:#5d6972;}.cls-7{fill:#faaf42;}.cls-8{fill:#f9b995;}.cls-9{fill:#e6e6e6;}.cls-10{fill:#ffd3b6;}.cls-11{fill:#f5f7ff;}.cls-12{fill:#f8c460;}.cls-13{fill:#eaac47;}.cls-14{fill:#fff;}</style></defs><g id="Layer_2" data-name="Layer 2"><g id="Layer_1-2" data-name="Layer 1"><circle class="cls-1" cx="24" cy="24" r="24"/><rect class="cls-2" x="12" y="12" width="24" height="24"/><g id="Layer_31" data-name="Layer 31"><path class="cls-3" d="M30.91,31.22v3.44H15.1V31.22a4.13,4.13,0,0,1,4.13-4.13H22a1,1,0,1,0,2.06,0h2.75A4.12,4.12,0,0,1,30.91,31.22Z"/><path class="cls-4" d="M19.57,33.62a3.43,3.43,0,0,1-3.44-3.43,4.15,4.15,0,0,1,.74-2.36,4.13,4.13,0,0,0-1.77,3.39v3.44H30.91v-1Z"/><path class="cls-5" d="M17.85,33.28H20.6v1.38H17.85Z"/><path class="cls-6" d="M19.57,33.62a3.32,3.32,0,0,1-1.49-.34h-.23v1.38H20.6v-1Z"/><path class="cls-5" d="M28.16,34.66H25.41V33.28h2.75Z"/><path class="cls-6" d="M26.79,33.28v.34H25.41v1h2.75V33.28Z"/><path class="cls-7" d="M20.6,25.72h4.81v1.37H20.6Z"/><path class="cls-8" d="M18.88,18.16h.35v2.06h-.35a1,1,0,0,1,0-2.06Z"/><path class="cls-8" d="M27.13,20.22h-.34V18.16h.34a1,1,0,1,1,0,2.06Z"/><path class="cls-9" d="M21.63,27.09,23,34.31l1.37-7.22Z"/><path class="cls-10" d="M22,24.34v2.75a1,1,0,1,0,2.06,0V24.34Z"/><path class="cls-8" d="M22,25.57a3.61,3.61,0,0,0,2.06,0V24.34H22Z"/><path class="cls-10" d="M19.23,17.47h7.56v3.78a3.78,3.78,0,1,1-7.56,0V17.47Z"/><path class="cls-7" d="M20.6,25.72l-1,1.37.34,2.07,1.72-2.07Z"/><path class="cls-7" d="M25.41,25.72l1,1.37-.34,2.07-1.72-2.07Z"/><path class="cls-11" d="M23,13.34a3.78,3.78,0,0,1,3.78,3.78v1H19.23v-1A3.78,3.78,0,0,1,23,13.34Z"/><path class="cls-8" d="M26.79,19.53V17.84a19.61,19.61,0,0,0-6.53-.17v-.2h-1v3.66A3.85,3.85,0,0,0,22.87,25a3.79,3.79,0,0,0,3.28-1.67,3.78,3.78,0,0,1-5.89-3.23v-.38a.68.68,0,0,1,.55-.67A10.7,10.7,0,0,1,26.79,19.53Z"/><path class="cls-3" d="M26.73,16.46a19.26,19.26,0,0,0-5.25-.3.69.69,0,0,1-.74-.62.72.72,0,0,1,.1-.43,3.83,3.83,0,0,1,2.68-1.73,3.75,3.75,0,0,0-4.25,3.17l0,.23c0,.11,0,.23,0,.34v1h1v-.33a10.72,10.72,0,0,1,6.53.33v-1A3.68,3.68,0,0,0,26.73,16.46Z"/><path class="cls-11" d="M27,17.18a19.73,19.73,0,0,0-7.88,0,.69.69,0,0,0-.53.82.7.7,0,0,0,.18.34l.51.5a10.81,10.81,0,0,1,7.56,0l.5-.5a.68.68,0,0,0,0-1A.72.72,0,0,0,27,17.18Z"/><path class="cls-3" d="M19.76,18.34a.69.69,0,0,1,0-1,.8.8,0,0,1,.35-.19,19.69,19.69,0,0,1,3.42-.39,19.55,19.55,0,0,0-4.45.39.69.69,0,0,0-.53.82.7.7,0,0,0,.18.34l.51.5.78-.25Z"/><circle class="cls-5" cx="23.01" cy="15.06" r="0.69"/><path d="M21.29,19.53a.35.35,0,0,0-.35.34v.35a.35.35,0,0,0,.35.34.34.34,0,0,0,.34-.34v-.35A.34.34,0,0,0,21.29,19.53Z"/><path d="M24.73,20.56a.34.34,0,0,0,.34-.34v-.35a.34.34,0,0,0-.34-.34.35.35,0,0,0-.35.34v.35A.35.35,0,0,0,24.73,20.56Z"/><path d="M23,16.09a1,1,0,1,0-1-1A1,1,0,0,0,23,16.09Zm0-1.37a.34.34,0,0,1,.34.34.35.35,0,0,1-.34.35.35.35,0,0,1-.35-.35A.35.35,0,0,1,23,14.72Z"/><path d="M30.91,35a.35.35,0,0,0,.35-.34V31.21a4.47,4.47,0,0,0-3.35-4.33.35.35,0,0,0-.42.25.34.34,0,0,0,.24.42,3.79,3.79,0,0,1,2.84,3.66v3.1H28.51v-1a.36.36,0,0,0-.37-.37H25.41a.34.34,0,0,0-.34.34v1H23.42l1.17-6.43,1.25,1.5a.36.36,0,0,0,.26.12h.09a.34.34,0,0,0,.25-.28l.34-2.06a.3.3,0,0,0-.06-.26l-1-1.38h0a.36.36,0,0,0-.26-.13h-1v-.24a4.11,4.11,0,0,0,2.75-3.88v-.69A1.37,1.37,0,0,0,27.82,18a1,1,0,0,0,0-.45,1,1,0,0,0-.67-.67,4.12,4.12,0,0,0-8.23,0,1,1,0,0,0-.67.67,1.14,1.14,0,0,0,0,.45,1.37,1.37,0,0,0,.69,2.56v.69a4.13,4.13,0,0,0,2.75,3.88v.24h-1a.36.36,0,0,0-.26.13,0,0,0,0,1,0,0l-1,1.38a.39.39,0,0,0-.06.26l.34,2.06a.37.37,0,0,0,.25.28h.09a.38.38,0,0,0,.27-.12l1.25-1.5.36,2a.35.35,0,0,0,.34.28h.06a.34.34,0,0,0,.28-.4l-.29-1.59a1.34,1.34,0,0,0,1.65,0L23,32.73l-.29-1.57a.35.35,0,0,0-.68.12l.55,3H20.94v-1a.34.34,0,0,0-.34-.34H17.85a.34.34,0,0,0-.34.34v1H15.44V31.22a3.78,3.78,0,0,1,2.84-3.66.36.36,0,0,0,.25-.42.34.34,0,0,0-.42-.25,4.46,4.46,0,0,0-3.35,4.33v3.44a.34.34,0,0,0,.34.34H30.91Zm-5-6.63-1.07-1.28.59-.79.67.89Zm-1.16-2.3-.35.46v-.46Zm2.4-6.19V19l.37-.37a.67.67,0,0,1,.21.94A.64.64,0,0,1,27.13,19.87ZM23,13.69a3.43,3.43,0,0,1,3.41,3,20.08,20.08,0,0,0-6.83,0A3.44,3.44,0,0,1,23,13.69Zm-4.82,5.5a.72.72,0,0,1,.32-.57l.37.37v.88A.68.68,0,0,1,18.19,19.19Zm1.38,2.06V19.09A10.41,10.41,0,0,1,24,18.55a.35.35,0,0,0,.07-.69,11.11,11.11,0,0,0-4.75.59L19,18.1a.35.35,0,0,1-.09-.35.32.32,0,0,1,.25-.23,19.45,19.45,0,0,1,7.75,0,.31.31,0,0,1,.25.23.35.35,0,0,1-.08.35l-.35.35a10.42,10.42,0,0,0-1.21-.35.34.34,0,1,0-.15.67c.36.08.73.2,1.11.32v2.16a3.44,3.44,0,0,1-6.88,0Zm2.06,5.27-.34-.46h.34Zm-1.5,1.84-.2-1.18.67-.89.59.79Zm3.56-1.27a.68.68,0,0,1-.68.69.69.69,0,0,1-.69-.69V25.31a3.51,3.51,0,0,0,1.37,0Zm3.43,7.22H25.76v-.69h2.09v.69h-.73Zm-8.93,0v-.69h2.07v.69Z"/><path class="cls-3" d="M25.41,15.53a.33.33,0,0,1-.26-.13,2.54,2.54,0,0,0-.62-.56.35.35,0,0,1-.09-.48.34.34,0,0,1,.48-.09,3.37,3.37,0,0,1,.76.7.34.34,0,0,1-.05.48A.35.35,0,0,1,25.41,15.53Z"/></g><g id="Layer_6" data-name="Layer 6"><circle class="cls-9" cx="29.63" cy="30.2" r="0.44"/><circle class="cls-9" cx="31.81" cy="29.76" r="0.44"/><path class="cls-9" d="M32.25,31.94a.66.66,0,0,0-.66-.65.68.68,0,0,0-.54.28.92.92,0,0,0-.33-.06.87.87,0,0,0-.87.87.85.85,0,0,0,.49.78.88.88,0,0,0,.51,1.13A.87.87,0,0,0,32,33.78a.5.5,0,0,0,0-.13.67.67,0,0,0,.24,0,.88.88,0,0,0,0-1.75Z"/><path class="cls-5" d="M29,21.31a.43.43,0,0,1,.35.51h0l-1.52,8.6h0L27,30.27h0l1.52-8.6a.45.45,0,0,1,.51-.36Z"/><path class="cls-5" d="M27,30.27l.86.15a.44.44,0,0,1,.36.51l-.08.43h0l-1.72-.31h0l.08-.43A.43.43,0,0,1,27,30.27Z"/><path class="cls-6" d="M27.13,29.63l-.11.63.86.16L28,29.8l-.11,0Z"/><path class="cls-6" d="M27.52,31.12a.42.42,0,0,1-.35-.5h0a.4.4,0,0,1,.2-.29L27,30.26a.44.44,0,0,0-.51.36l-.07.43,1.72.3,0-.11Z"/><path class="cls-12" d="M28.91,34.59a5.67,5.67,0,0,1-4.3-.76l1.83-2.78,1.72.3Z"/><path class="cls-13" d="M26,32.8l1.07-1.64-.65-.11-1.83,2.78a5.69,5.69,0,0,0,4.31.76l0-.1a5.52,5.52,0,0,1-2.47-.4A.88.88,0,0,1,25.94,33,1.09,1.09,0,0,1,26,32.8Z"/><path d="M28.38,31.35l.07-.39a.67.67,0,0,0-.33-.68l1.49-8.42a.66.66,0,0,0-.53-.76.64.64,0,0,0-.76.53h0l-1.49,8.42a.66.66,0,0,0-.53.53l-.07.39-1.8,2.74a.22.22,0,0,0,.06.3h0a5.88,5.88,0,0,0,3.16.92A6.39,6.39,0,0,0,29,34.8a.21.21,0,0,0,.17-.25h0Zm.37-9.65a.22.22,0,0,1,.26-.17.22.22,0,0,1,.17.25L27.7,30.16l-.43-.07Zm-2,9a.22.22,0,0,1,.25-.18l.86.15a.22.22,0,0,1,.18.25h0l0,.22-1.29-.23Zm1.48,3.82-.28-1.91a.22.22,0,0,0-.43.07l.27,1.86a5.87,5.87,0,0,1-.83,0l.34-1.92a.22.22,0,0,0-.17-.25.21.21,0,0,0-.26.17l-.34,1.93a5.53,5.53,0,0,1-.79-.24l.89-1.66a.22.22,0,0,0-.08-.3.24.24,0,0,0-.3.09L25.31,34l-.39-.2,1.62-2.47,1.44.25.67,2.88-.44.06Z"/><path d="M30.28,30.2a.66.66,0,0,0-.65-.66.67.67,0,0,0-.66.66.66.66,0,0,0,.66.65A.65.65,0,0,0,30.28,30.2Zm-.87,0a.22.22,0,1,1,.22.22A.22.22,0,0,1,29.41,30.2Z"/><path d="M31.81,30.42a.67.67,0,0,0,.66-.66.66.66,0,0,0-.66-.65.65.65,0,0,0-.65.65A.66.66,0,0,0,31.81,30.42Zm0-.88a.22.22,0,1,1-.22.22A.22.22,0,0,1,31.81,29.54Z"/><circle class="cls-14" cx="31.81" cy="31.94" r="0.22"/><path d="M32.47,31.94a.89.89,0,0,0-.88-.87.86.86,0,0,0-.61.25,1.09,1.09,0,0,0-.89,2v0a.75.75,0,0,0,0,.26,1.31,1.31,0,0,0,1.54.94.88.88,0,0,0,.52-.41.82.82,0,0,0,.26,0,1.09,1.09,0,0,0,0-2.07Zm-.39.18a.22.22,0,0,0,.18.23.65.65,0,0,1,.07,1.27.52.52,0,0,1-.25,0,.22.22,0,0,0-.23.15.43.43,0,0,1-.55.28.87.87,0,0,1-.74-.64.53.53,0,0,1,0-.25.22.22,0,0,0-.11-.21.67.67,0,0,1-.37-.59.66.66,0,0,1,.66-.65.56.56,0,0,1,.25.05.22.22,0,0,0,.26-.08.45.45,0,0,1,.61-.12.48.48,0,0,1,.23.37Z"/></g></g></g></svg>