<svg xmlns="http://www.w3.org/2000/svg" viewBox="0 0 48 48"><defs><style>.cls-1{fill:none;}.cls-2{fill:#ffd3b6;}.cls-3{fill:#f8c460;}.cls-4{fill:#faaf42;}.cls-5{fill:#f97878;}.cls-6{fill:#fcab68;}.cls-7{fill:#ed5d5d;}.cls-8{fill:#ccd3eb;}.cls-9{fill:#96a1c3;}.cls-10{fill:#f9b995;}.cls-11{fill:#7a838b;}.cls-12{fill:#5d6972;}.cls-13{fill:#fff;}</style></defs><g id="Layer_2" data-name="Layer 2"><g id="Layer_1-2" data-name="Layer 1"><rect class="cls-1" width="48" height="48"/><g id="Layer_31" data-name="Layer 31"><path class="cls-2" d="M16.44,12.31H31.56v8.94a7.56,7.56,0,0,1-15.12,0V12.31Z"/><path class="cls-3" d="M24,4.06a7.56,7.56,0,0,1,7.56,7.56v2.07H16.44V11.62A7.56,7.56,0,0,1,24,4.06Z"/><path class="cls-4" d="M28.9,12.07c-.45,0-.9.07-1.34.1l-3-8.08h0a7.49,7.49,0,0,0-4.12.9l-2.13,5.68a1.69,1.69,0,0,1-1.81,1.08h0v1.95H31.56v-2c-.89.14-1.78.25-2.66.34Z"/><path class="cls-5" d="M29.5,13.69h-11L22.14,4a2,2,0,0,1,3.72,0Z"/><circle class="cls-6" cx="24" cy="9.56" r="1.38"/><path class="cls-5" d="M21.25,28.81h5.5a1.38,1.38,0,0,1,1.38,1.38v2.75H19.87V30.19A1.38,1.38,0,0,1,21.25,28.81Z"/><path class="cls-7" d="M21.94,29.5v-.69h-.69a1.38,1.38,0,0,0-1.38,1.38v2.75h8.26V30.87H23.31A1.37,1.37,0,0,1,21.94,29.5Z"/><path class="cls-8" d="M16.44,32.94H31.56a8.25,8.25,0,0,1,8.25,8.25v4.12H8.19V41.19A8.25,8.25,0,0,1,16.44,32.94Z"/><path class="cls-9" d="M14.37,43.25a4.13,4.13,0,0,1-4.12-4.13,8.24,8.24,0,0,1,1.48-4.7,8.24,8.24,0,0,0-3.54,6.77v4.12H39.81V43.25Z"/><path class="cls-3" d="M13.69,41.19H34.31v4.12H13.69Z"/><path class="cls-3" d="M8.19,41.19h5.5v4.12H8.19Z"/><path class="cls-3" d="M34.31,41.19h5.5v4.12h-5.5Z"/><path class="cls-4" d="M34.31,43.25h5.5v2.06h-5.5Z"/><path class="cls-4" d="M34.31,43.25v2.06H13.69V43.19a3.82,3.82,0,0,0,.68.06Z"/><path class="cls-4" d="M13.69,43.19v2.12H8.19V41.19h2.62A4.1,4.1,0,0,0,13.69,43.19Z"/><path class="cls-10" d="M15.75,15.06h.69v4.13h-.69a2.07,2.07,0,0,1,0-4.13Z"/><path class="cls-10" d="M32.25,19.19h-.69V15.06h.69a2.07,2.07,0,0,1,0,4.13Z"/><path class="cls-10" d="M31.56,17.23V14.48a49.66,49.66,0,0,1-13.06.28c-.69-.08-1.38-.17-2.06-.28V21a7.73,7.73,0,0,0,7.26,7.8,7.55,7.55,0,0,0,6.58-3.35,7.55,7.55,0,0,1-5.54,1.18A7.68,7.68,0,0,1,18.5,19a1.37,1.37,0,0,1,1.37-1.36H20a49.79,49.79,0,0,0,11.57-.42Z"/><path class="cls-11" d="M34.63,15.3a50.13,50.13,0,0,1-21.26,0A1.36,1.36,0,0,1,12.31,14a1.34,1.34,0,0,1,1.34-1.34l.26,0a50.06,50.06,0,0,0,20.18,0,1.34,1.34,0,0,1,1.57,1.06,1.15,1.15,0,0,1,0,.26A1.36,1.36,0,0,1,34.63,15.3Z"/><path class="cls-7" d="M28.9,12.07c-1.27.13-2.53.2-3.79.23A2.76,2.76,0,0,1,22.3,9.6a2.92,2.92,0,0,1,.18-1L24.21,4A1.92,1.92,0,0,1,25,3a2,2,0,0,0-1.8-.14A2.05,2.05,0,0,0,22.12,4l-3,8-.61,1.62h11Z"/><path class="cls-12" d="M15.43,15.3a1.35,1.35,0,0,1-1-1.6,1.29,1.29,0,0,1,.58-.84c-.36-.07-.72-.12-1.08-.2a1.35,1.35,0,0,0-.54,2.64A50.73,50.73,0,0,0,25,16.41,50.82,50.82,0,0,1,15.43,15.3Z"/><path d="M26.06,9.56A2.06,2.06,0,1,0,24,11.62,2.06,2.06,0,0,0,26.06,9.56Zm-2.75,0a.69.69,0,1,1,.69.69A.69.69,0,0,1,23.31,9.56Z"/><path d="M39.09,40.5H24.69V33.62h6.87A7.58,7.58,0,0,1,39.09,40.5ZM20.56,30.19a.69.69,0,0,1,.69-.69h2.06v2.75H20.56Zm4.13-.69h2.06a.69.69,0,0,1,.69.69v2.06H24.69Zm8.94-12.38a1.39,1.39,0,0,1-.34.89l-.06.08a1.39,1.39,0,0,1-1,.41V16.44c.35-.05.71-.11,1.06-.18A1.45,1.45,0,0,1,33.63,17.12Zm-16.51-5.5a6.93,6.93,0,0,1,3.7-6.09L18.89,10.7a.67.67,0,0,0,.4.88.7.7,0,0,0,.89-.4l2.61-7a1.29,1.29,0,0,1,1.67-.75,1.31,1.31,0,0,1,.76.75l2.61,7a.68.68,0,0,0,.64.44.68.68,0,0,0,.64-.92h0L27.18,5.53a6.93,6.93,0,0,1,3.7,6.09v.88a49.55,49.55,0,0,1-13.76,0ZM13,14a.66.66,0,0,1,.24-.51.64.64,0,0,1,.53-.13,51.07,51.07,0,0,0,20.46,0,.64.64,0,0,1,.53.13.66.66,0,0,1,.09.93.72.72,0,0,1-.36.23,53.06,53.06,0,0,1-5.74.89.69.69,0,0,0-.6.77.68.68,0,0,0,.73.6c.66-.06,1.33-.15,2-.24v4.6a6.88,6.88,0,0,1-13.75,0V16.64a51.39,51.39,0,0,0,6.9.48c.69,0,1.38,0,2.07,0a.68.68,0,0,0,.66-.71.7.7,0,0,0-.72-.66,49.68,49.68,0,0,1-12.52-1.08A.66.66,0,0,1,13,14Zm2.75,2.46V18.5a1.39,1.39,0,0,1-1-.41L14.71,18a1.34,1.34,0,0,1,0-1.76C15.05,16.31,15.4,16.39,15.75,16.44Zm-2.7,16.47h0A9,9,0,0,0,7.5,41.19v4.12a.69.69,0,0,0,.69.69H39.81a.69.69,0,0,0,.69-.69V41.19A9,9,0,0,0,35,32.92h0l-1.39-.43a8.89,8.89,0,0,0-2-.23H28.81V30.19a2.08,2.08,0,0,0-.88-1.69,8.24,8.24,0,0,0,4.32-7.25V19.87a2.57,2.57,0,0,0,.87-.15s.49-.07,1.34-1A2.67,2.67,0,0,0,34.74,16h0a2,2,0,0,0,1.56-2.43,2.1,2.1,0,0,0-.7-1.14A2,2,0,0,0,34,12c-.56.11-1.13.2-1.7.3v-.67a8.28,8.28,0,0,0-5.73-7.85l0,0a2.67,2.67,0,0,0-5,0l0,0a8.28,8.28,0,0,0-5.73,7.85v.67c-.57-.09-1.14-.19-1.7-.3a2,2,0,0,0-.83,4h0a2.67,2.67,0,0,0,.28,2.76,3.84,3.84,0,0,0,1.34,1,2.57,2.57,0,0,0,.87.15v1.38a8.24,8.24,0,0,0,4.32,7.25,2.08,2.08,0,0,0-.88,1.69v2.06H16.44a8.89,8.89,0,0,0-2,.23l-1.39.44M8.87,41.87H13v2.75H8.87Zm5.5,2.75V41.87h2.07a.67.67,0,0,0,.68-.68.68.68,0,0,0-.68-.69H8.91a7.58,7.58,0,0,1,7.53-6.88h6.87V40.5H19.19a.69.69,0,0,0-.69.69.68.68,0,0,0,.69.68h4.12v2.75Zm10.32-2.75h8.94v2.75H24.69Zm14.44,2.75H35V41.87h4.13Z"/><path d="M20.56,17.81a.69.69,0,0,0-.69.69v.69a.69.69,0,0,0,1.38,0V18.5A.69.69,0,0,0,20.56,17.81Z"/><path d="M27.44,19.87a.68.68,0,0,0,.69-.68V18.5a.69.69,0,0,0-1.38,0v.69A.68.68,0,0,0,27.44,19.87Z"/><path class="cls-13" d="M32.94,15a.69.69,0,0,1-.12-1.37l1.35-.26a.69.69,0,0,1,.83.52.69.69,0,0,1-.52.82h0l-1.39.27Z"/></g></g></g></svg>