<svg xmlns="http://www.w3.org/2000/svg" viewBox="0 0 48 48"><defs><style>.cls-1{fill:none;}.cls-2{fill:#ccd3eb;}.cls-3{fill:#96a1c3;}.cls-4{fill:#7a838b;}.cls-5{fill:#5d6972;}.cls-6{fill:#f8c460;}.cls-7{fill:#f9b995;}.cls-8{fill:#ffd3b6;}.cls-9{fill:#80bbce;}.cls-10{fill:#f5f7ff;}.cls-11{fill:#faaf42;}</style></defs><g id="Layer_2" data-name="Layer 2"><g id="Layer_1-2" data-name="Layer 1"><rect class="cls-1" width="48" height="48"/><g id="Layer_31" data-name="Layer 31"><path class="cls-2" d="M15.06,32.94H30.18a8.25,8.25,0,0,1,8.25,8.25v4.12H6.81V41.19A8.25,8.25,0,0,1,15.06,32.94Z"/><path class="cls-3" d="M11.62,43.25A2.75,2.75,0,0,1,8.87,40.5V39.13a8.24,8.24,0,0,1,1.48-4.71,8.24,8.24,0,0,0-3.54,6.77v4.12H38.43V43.25Z"/><path class="cls-3" d="M15.06,36.38a1.38,1.38,0,0,0,0-2.75h-3.3a8.19,8.19,0,0,0-3.39,2.75Z"/><path class="cls-4" d="M21.93,36.38l-1.37,8.93h4.12l-1.37-8.93Z"/><path class="cls-5" d="M20.87,43.25l-.31,2.06h4.12l-.32-2.06Z"/><path class="cls-6" d="M8.18,32.25h6.88a1.38,1.38,0,0,1,0,2.75H8.18V32.25Z"/><path class="cls-4" d="M12.31,42.56h5.5v2.75h-5.5Z"/><path class="cls-5" d="M12.31,43.25h5.5v2.06h-5.5Z"/><path class="cls-4" d="M32.93,45.31h-5.5V42.56h5.5Z"/><path class="cls-5" d="M27.43,43.25h5.5v2.06h-5.5Z"/><path class="cls-7" d="M20.56,27.44h4.12v5.5H20.56Z"/><path class="cls-8" d="M15.06,13.69H30.18v7.56a7.56,7.56,0,1,1-15.12,0V13.69Z"/><path class="cls-7" d="M30.18,15.06V13.69H15.06V21a7.72,7.72,0,0,0,7.28,7.8,7.59,7.59,0,0,0,6.56-3.34,7.56,7.56,0,0,1-5.53,1.17A7.67,7.67,0,0,1,17.12,19v-.56a1.37,1.37,0,0,1,1.38-1.37,1.33,1.33,0,0,1,.45.08Q24.58,19.14,30.18,15.06Z"/><path class="cls-2" d="M30.18,10.94H15.06v2.75q7.56,5.49,15.12,0Z"/><path class="cls-9" d="M17.12,13.69V10.94H15.06v2.75a12.33,12.33,0,0,0,8.59,2.69A13.29,13.29,0,0,1,17.12,13.69Z"/><path class="cls-7" d="M14.37,15.06h.69v4.13h-.69a2.07,2.07,0,0,1,0-4.13Z"/><path class="cls-7" d="M30.87,19.19h-.69V15.06h.69a2.07,2.07,0,0,1,0,4.13Z"/><path class="cls-5" d="M20.55,35l2.06-2.06L24.68,35l-2.07,2.06Z"/><path class="cls-4" d="M15.06,10.94H30.18v2.75H15.06Z"/><path class="cls-5" d="M15.06,10.94h2.06v2.75H15.06Z"/><path class="cls-10" d="M30.18,4.75,22.62,2.69,15.06,4.75,12.31,8.19l2.75,2.75H30.18l2.75-2.75Z"/><path class="cls-2" d="M31.56,8.88H19.85A8.22,8.22,0,0,1,14,6.46l-.18-.18L12.31,8.19l2.75,2.75H30.18l2.75-2.75-.3-.38Z"/><circle class="cls-4" cx="22.62" cy="6.81" r="1.37"/><path class="cls-2" d="M20.56,30.19l-2.07,2.75.69,4.12,3.44-4.12Z"/><path class="cls-2" d="M24.68,30.19l2.06,2.75-.68,4.12-3.44-4.12Z"/><path class="cls-11" d="M8.18,32.25h2.06V35H8.18Z"/><path d="M27.94,32.25h-.85L25.37,30V29a8.27,8.27,0,0,0,5.5-7.77V19.88a2.75,2.75,0,0,0,0-5.5V11.22l2.55-2.55a.68.68,0,0,0,0-.91L30.72,4.32a.72.72,0,0,0-.36-.23L22.8,2a.73.73,0,0,0-.36,0L14.88,4.09a.72.72,0,0,0-.36.23L11.77,7.76a.68.68,0,0,0,.05.91l2.55,2.55v3.16a2.75,2.75,0,1,0,0,5.5v1.37A8.27,8.27,0,0,0,19.87,29V30l-1.72,2.29H16.58a2,2,0,0,0-1.52-.69H8.18a.69.69,0,0,0-.69.69V35a.69.69,0,0,0,.69.69h6.88a2.06,2.06,0,0,0,2.06-2.06h.79l.59,3.55a.7.7,0,0,0,.5.55l.18,0a.67.67,0,0,0,.53-.25l1.08-1.29.41.4-1.23,8H18.49V42.56a.67.67,0,0,0-.68-.68h-5.5a.68.68,0,0,0-.69.68v2.07H7.49V41.19A7.57,7.57,0,0,1,8.18,38a.68.68,0,0,0-.34-.91.69.69,0,0,0-.91.33,8.88,8.88,0,0,0-.81,3.73v4.12a.69.69,0,0,0,.69.69H38.43a.69.69,0,0,0,.69-.69V41.19a8.88,8.88,0,0,0-.81-3.73.7.7,0,0,0-.91-.34.69.69,0,0,0-.34.92,7.41,7.41,0,0,1,.68,3.15v3.44H33.62V42.56a.68.68,0,0,0-.69-.68h-5.5a.68.68,0,0,0-.69.68v2.07H25.27l-1.23-8,.41-.4,1.08,1.29a.67.67,0,0,0,.53.25l.18,0a.7.7,0,0,0,.5-.55l.59-3.55h.61a.68.68,0,0,0,.68-.66h0A.68.68,0,0,0,27.94,32.25ZM15.06,34.31H8.87V32.94h6.19a.69.69,0,0,1,0,1.37Zm10.57,1.16-.6-.71v0L23.5,32.91l1.18-1.58L26,33.11ZM15.45,5.35,22.62,3.4l7.17,1.95L32,8.14,29.9,10.25H27.43a.69.69,0,1,0,0,1.38h2.06V13H15.74V11.63h8.94a.69.69,0,1,0,0-1.38H15.34L13.23,8.14Zm12.34,9a10.42,10.42,0,0,1-10.34,0Zm-12,6.87V17.81a.67.67,0,0,0-.68-.68.68.68,0,0,0-.69.68v.69a1.38,1.38,0,1,1,0-2.75h.69a.68.68,0,0,0,.68-.69V15a13,13,0,0,0,6.88,2.15A12.93,12.93,0,0,0,29.49,15v.08a.69.69,0,0,0,.69.69h.69a1.38,1.38,0,0,1,0,2.75v-.69a.69.69,0,0,0-1.38,0v3.44a6.88,6.88,0,1,1-13.75,0Zm6.88,8.25A7.84,7.84,0,0,0,24,29.38V30l-1.37,1.83L21.24,30v-.58A8,8,0,0,0,22.62,29.5Zm-3,6-.39-2.36,1.34-1.78,1.18,1.58-1.53,1.83v0Zm3-1.46.95,1.14-.95.94-.95-.94ZM13,44.63V43.25h4.13v1.38Zm8.37,0,1.06-6.92a.55.55,0,0,0,.4,0l1.06,6.92Zm6.76,0V43.25h4.12v1.38Z"/><path d="M22.62,8.88a2.07,2.07,0,1,0-2.06-2.07A2.07,2.07,0,0,0,22.62,8.88Zm0-2.75a.68.68,0,0,1,.69.68.69.69,0,1,1-1.38,0A.68.68,0,0,1,22.62,6.13Z"/><path d="M19.18,17.81a.69.69,0,0,0-.69.69v.69a.69.69,0,0,0,1.38,0V18.5A.69.69,0,0,0,19.18,17.81Z"/><path d="M26.06,19.88a.68.68,0,0,0,.68-.69V18.5a.68.68,0,0,0-.68-.69.69.69,0,0,0-.69.69v.69A.69.69,0,0,0,26.06,19.88Z"/><path class="cls-2" d="M28.12,6.3l-.18,0L26.56,5.9a.69.69,0,1,1,.33-1.33h0L28.3,5a.69.69,0,0,1-.18,1.35Z"/></g><g id="Shield"><path class="cls-2" d="M35.77,45.67A8,8,0,0,1,30,38V32.38l5.82-1.66,5.81,1.66V38A8,8,0,0,1,35.77,45.67Z"/><path class="cls-3" d="M35.77,30.72l5.81,1.66V38a8,8,0,0,1-5.81,7.71S35.77,46.14,35.77,30.72Z"/><path class="cls-6" d="M40.48,33.21V38a6.94,6.94,0,0,1-4.71,6.55A6.93,6.93,0,0,1,31.06,38V33.21l4.71-1.34Z"/><path class="cls-11" d="M40.48,33.21V38a6.94,6.94,0,0,1-4.71,6.55,6.78,6.78,0,0,1-3-2A9.43,9.43,0,0,0,40.48,33.21Z"/><path d="M35.69,46a8.33,8.33,0,0,1-6-8V32.38a.29.29,0,0,1,.21-.28c6.33-1.8,5.85-1.68,6-1.66l5.82,1.66a.29.29,0,0,1,.2.28c0,5.72.23,7.1-.89,9.32a.28.28,0,0,1-.38.1.27.27,0,0,1-.11-.35c1-2.06.83-3.17.83-8.86L35.77,31l-5.54,1.59V38a7.77,7.77,0,0,0,5.54,7.44,7.8,7.8,0,0,0,4.15-3,.28.28,0,0,1,.39,0,.29.29,0,0,1,.07.37A8.31,8.31,0,0,1,35.84,46,.2.2,0,0,1,35.69,46Z"/><path d="M35.68,44.78A7.22,7.22,0,0,1,30.78,38V33.21a.29.29,0,0,1,.2-.28l1.67-.47a.27.27,0,0,1,.32.21.28.28,0,0,1-.17.32l-1.46.44V38a6.62,6.62,0,0,0,4.43,6.26A6.63,6.63,0,0,0,40.2,38V33.43l-4.43-1.27-1.91.55a.28.28,0,0,1-.33-.21.28.28,0,0,1,.18-.32c2.14-.63,2-.6,2.13-.57L40.55,33a.27.27,0,0,1,.2.26V38C40.75,42.78,36.24,45,35.68,44.78Z"/></g></g></g></svg>