<svg id="home_0" data-name="home 0" xmlns="http://www.w3.org/2000/svg" xmlns:xlink="http://www.w3.org/1999/xlink" width="96" height="96" viewBox="0 0 96 96">
  <defs>
    <clipPath id="clip-path">
      <rect id="Rectangle_1886" data-name="Rectangle 1886" width="96" height="96" fill="#919aab"/>
    </clipPath>
  </defs>
  <g id="Group_83" data-name="Group 83" clip-path="url(#clip-path)">
    <path id="Path_114" data-name="Path 114" d="M72.475,35.774c-1.121-3.1-3.439-5.421-6.944-8.927L46.647,7.524a10.272,10.272,0,0,0-14.562.005L13.208,26.844C9.7,30.352,7.38,32.672,6.262,35.774c-1.017,2.82-1.014,6.064-1.012,11.434v15.25A10.29,10.29,0,0,0,15.528,72.737h47.68A10.29,10.29,0,0,0,73.487,62.458V47.208c0-5.371.005-8.614-1.012-11.434M31.75,50.058A4.04,4.04,0,0,1,34.608,48.9h9.521a4.034,4.034,0,0,1,2.855,1.161,3.984,3.984,0,0,1,1.185,2.861l-.005,13.575H30.57l0-13.575a3.988,3.988,0,0,1,1.183-2.861m19.663-4.391a10.225,10.225,0,0,0-7.284-3.016H34.608a10.274,10.274,0,0,0-10.286,10.27l0,13.572h-8.8A4.038,4.038,0,0,1,11.5,62.458V48.169c0-5.587.029-8.582.642-10.278.591-1.646,1.983-3.136,5.523-6.679L36.519,11.936a4.006,4.006,0,0,1,5.7,0L61.078,31.217c3.538,3.538,4.929,5.028,5.52,6.674.613,1.7.642,4.691.642,10.278v14.29a4.038,4.038,0,0,1-4.033,4.035h-8.8l0-13.572a10.189,10.189,0,0,0-3-7.254" transform="translate(8.799 7.542)" fill="#919aab"/>
  </g>
</svg>
