<svg xmlns="http://www.w3.org/2000/svg" width="380" height="42" viewBox="0 0 380 42">
  <g id="Path_13027" data-name="Path 13027" fill="rgba(255,255,255,0)">
    <path d="M 376 41.5 L 4 41.5 C 2.070100069046021 41.5 0.5 39.92990112304688 0.5 38 L 0.5 4 C 0.5 2.070100069046021 2.070100069046021 0.5 4 0.5 L 376 0.5 C 377.9299011230469 0.5 379.5 2.070100069046021 379.5 4 L 379.5 38 C 379.5 39.92990112304688 377.9299011230469 41.5 376 41.5 Z" stroke="none"/>
    <path d="M 4 1 C 2.345794677734375 1 1 2.345798492431641 1 4 L 1 38 C 1 39.65420150756836 2.345794677734375 41 4 41 L 376 41 C 377.6542053222656 41 379 39.65420150756836 379 38 L 379 4 C 379 2.345798492431641 377.6542053222656 1 376 1 L 4 1 M 4 0 L 376 0 C 378.2091369628906 0 380 1.790851593017578 380 4 L 380 38 C 380 40.20914840698242 378.2091369628906 42 376 42 L 4 42 C 1.790863037109375 42 0 40.20914840698242 0 38 L 0 4 C 0 1.790851593017578 1.790863037109375 0 4 0 Z" stroke="none" fill="#edeef1"/>
  </g>
</svg>
