<svg xmlns="http://www.w3.org/2000/svg" viewBox="0 0 48 48"><defs><style>.cls-1{fill:none;}.cls-2{fill:#ccd3eb;}.cls-3{fill:#96a1c3;}.cls-4{fill:#7a838b;}.cls-5{fill:#5d6972;}.cls-6{fill:#faaf42;}.cls-7{fill:#f9b995;}.cls-8{fill:#e6e6e6;}.cls-9{fill:#ffd3b6;}.cls-10{fill:#f5f7ff;}.cls-11{fill:#f8c460;}.cls-12{fill:#eaac47;}.cls-13{fill:#fff;}</style></defs><g id="Layer_2" data-name="Layer 2"><g id="Layer_1-2" data-name="Layer 1"><rect class="cls-1" width="48" height="48"/><g id="Layer_31" data-name="Layer 31"><path class="cls-2" d="M37.83,38.44v6.87H6.2V38.44a8.25,8.25,0,0,1,8.25-8.25H20a2.07,2.07,0,0,0,4.13,0h5.5A8.25,8.25,0,0,1,37.83,38.44Z"/><path class="cls-3" d="M15.14,43.25a6.88,6.88,0,0,1-6.88-6.88,8.24,8.24,0,0,1,1.48-4.7A8.24,8.24,0,0,0,6.2,38.44v6.87H37.83V43.25Z"/><path class="cls-4" d="M11.7,42.56h5.5v2.75H11.7Z"/><path class="cls-5" d="M15.14,43.25a6.85,6.85,0,0,1-3-.69H11.7v2.75h5.5V43.25Z"/><path class="cls-4" d="M32.33,45.31h-5.5V42.56h5.5Z"/><path class="cls-5" d="M29.58,42.56v.69H26.83v2.06h5.5V42.56Z"/><path class="cls-6" d="M17.2,27.44h9.63v2.75H17.2Z"/><path class="cls-7" d="M13.76,12.31h.69v4.13h-.69a2.07,2.07,0,0,1,0-4.13Z"/><path class="cls-7" d="M30.26,16.44h-.68V12.31h.68a2.07,2.07,0,1,1,0,4.13Z"/><path class="cls-8" d="M19.26,30.19,22,44.62l2.75-14.43Z"/><path class="cls-9" d="M20,24.69v5.5a2.07,2.07,0,0,0,4.13,0v-5.5Z"/><path class="cls-7" d="M20,27.15a7.62,7.62,0,0,0,4.13,0V24.69H20Z"/><path class="cls-9" d="M14.45,10.94H29.58V18.5a7.57,7.57,0,0,1-15.13,0V10.94Z"/><path class="cls-6" d="M17.2,27.44l-2.06,2.75.69,4.12,3.43-4.12Z"/><path class="cls-6" d="M26.83,27.44l2.06,2.75-.69,4.12-3.44-4.12Z"/><path class="cls-10" d="M22,2.69a7.56,7.56,0,0,1,7.57,7.56v2.06H14.45V10.25A7.56,7.56,0,0,1,22,2.69Z"/><path class="cls-7" d="M29.58,15.06V11.68a39.29,39.29,0,0,0-13.07-.34v-.4H14.45v7.32a7.73,7.73,0,0,0,7.29,7.8,7.56,7.56,0,0,0,6.55-3.34,7.51,7.51,0,0,1-5,1.24,7.69,7.69,0,0,1-6.78-7.71v-.74a1.41,1.41,0,0,1,1.11-1.36A21.49,21.49,0,0,1,29.58,15.06Z"/><path class="cls-2" d="M29.45,8.91A39.19,39.19,0,0,0,19,8.32a1.36,1.36,0,0,1-1.49-1.25,1.4,1.4,0,0,1,.21-.85,7.52,7.52,0,0,1,5.36-3.45,7.5,7.5,0,0,0-8.51,6.34c0,.15,0,.3,0,.45a5.32,5.32,0,0,0,0,.69v2.06h2.06v-.64a21.39,21.39,0,0,1,13.07.64V10.25A7.51,7.51,0,0,0,29.45,8.91Z"/><path class="cls-10" d="M29.9,10.37a38.78,38.78,0,0,0-15.77,0A1.37,1.37,0,0,0,13.08,12a1.27,1.27,0,0,0,.37.68l1,1a21.43,21.43,0,0,1,15.13,0l1-1a1.36,1.36,0,0,0,0-1.94A1.27,1.27,0,0,0,29.9,10.37Z"/><path class="cls-2" d="M15.51,12.68a1.36,1.36,0,0,1,0-1.94,1.31,1.31,0,0,1,.68-.37,39.49,39.49,0,0,1,6.86-.78,39.23,39.23,0,0,0-8.92.78A1.37,1.37,0,0,0,13.08,12a1.27,1.27,0,0,0,.37.68l1,1q.78-.28,1.56-.51Z"/><circle class="cls-4" cx="22.01" cy="6.12" r="1.38"/><path d="M18.58,15.06a.69.69,0,0,0-.69.69v.69a.68.68,0,0,0,.69.68.67.67,0,0,0,.68-.68v-.69A.68.68,0,0,0,18.58,15.06Z"/><path d="M25.45,17.12a.68.68,0,0,0,.69-.68v-.69a.69.69,0,0,0-1.38,0v.69A.68.68,0,0,0,25.45,17.12Z"/><path d="M22,8.19A2.07,2.07,0,1,0,20,6.12,2.07,2.07,0,0,0,22,8.19Zm0-2.75a.68.68,0,0,1,.69.68.69.69,0,0,1-.69.69.68.68,0,0,1-.68-.69A.67.67,0,0,1,22,5.44Z"/><path d="M37.83,46a.68.68,0,0,0,.68-.69V38.42a8.91,8.91,0,0,0-6.7-8.65.68.68,0,0,0-.84.49.7.7,0,0,0,.5.84,7.55,7.55,0,0,1,5.67,7.32v6.19H33v-2a.74.74,0,0,0-.74-.74H26.83a.69.69,0,0,0-.69.69v2.06h-3.3l2.34-12.86,2.49,3a.69.69,0,0,0,.53.25l.18,0a.69.69,0,0,0,.5-.55l.69-4.13a.73.73,0,0,0-.13-.53L27.38,27l0,0a.67.67,0,0,0-.52-.25H24.76v-.48a8.24,8.24,0,0,0,5.5-7.77V17.12A2.74,2.74,0,0,0,31.65,12a2.06,2.06,0,0,0-.07-.89,2,2,0,0,0-1.34-1.35,8.24,8.24,0,0,0-16.45,0,2,2,0,0,0-1.34,1.35,2.06,2.06,0,0,0-.07.89,2.74,2.74,0,0,0,1.38,5.12V18.5a8.27,8.27,0,0,0,5.5,7.77v.48H17.2a.67.67,0,0,0-.52.25l0,0-2.06,2.75a.72.72,0,0,0-.13.53l.69,4.13a.7.7,0,0,0,.5.55l.18,0a.7.7,0,0,0,.53-.25l2.49-3,.74,4.05a.68.68,0,0,0,.67.57h.13a.69.69,0,0,0,.55-.8l-.58-3.2a2.69,2.69,0,0,0,3.31,0L22,41.47l-.57-3.16a.69.69,0,0,0-1.35.25l1.1,6.06h-3.3V42.56a.69.69,0,0,0-.69-.69H11.7a.69.69,0,0,0-.69.69v2.06H6.89V38.44a7.57,7.57,0,0,1,5.67-7.33.69.69,0,0,0,.5-.83.7.7,0,0,0-.84-.5,8.94,8.94,0,0,0-6.71,8.66v6.87A.69.69,0,0,0,6.2,46H37.83ZM27.77,32.72l-2.13-2.55,1.19-1.59,1.33,1.78Zm-2.32-4.6-.69.92v-.92Zm4.81-12.37V14l.75-.74a1.38,1.38,0,0,1,.42,1.89A1.4,1.4,0,0,1,30.26,15.75ZM22,3.37a6.89,6.89,0,0,1,6.83,6.11,39.6,39.6,0,0,0-13.65,0A6.89,6.89,0,0,1,22,3.37Zm-9.62,11A1.36,1.36,0,0,1,13,13.23l.74.74v1.78A1.38,1.38,0,0,1,12.39,14.37Zm2.75,4.13V14.18A21,21,0,0,1,24,13.1a.69.69,0,0,0,.14-1.37,22.31,22.31,0,0,0-9.52,1.16l-.69-.69a.7.7,0,0,1-.18-.7.68.68,0,0,1,.51-.46,38.48,38.48,0,0,1,15.49,0,.67.67,0,0,1,.51.46.72.72,0,0,1-.17.7l-.7.69A24.8,24.8,0,0,0,27,12.2a.67.67,0,0,0-.82.51.69.69,0,0,0,.51.83c.74.17,1.48.39,2.22.64V18.5a6.88,6.88,0,0,1-13.75,0ZM19.26,29l-.68-.92h.68Zm-3,3.68-.39-2.36,1.33-1.78,1.19,1.58Zm7.13-2.53a1.38,1.38,0,0,1-2.75,0V26.63a7.94,7.94,0,0,0,2.75,0Zm6.85,14.43H27.51V43.25H31.7v1.37H30.24Zm-17.85,0V43.25h4.12v1.37Z"/><path class="cls-2" d="M26.83,7.05a.69.69,0,0,1-.54-.25,5.41,5.41,0,0,0-1.22-1.12.69.69,0,1,1,.77-1.14,6.69,6.69,0,0,1,1.52,1.39.69.69,0,0,1-.1,1A.68.68,0,0,1,26.83,7.05Z"/></g><g id="Layer_6" data-name="Layer 6"><circle class="cls-8" cx="35.25" cy="36.39" r="0.87"/><circle class="cls-8" cx="39.62" cy="35.52" r="0.87"/><path class="cls-8" d="M40.49,39.89a1.31,1.31,0,0,0-2.39-.74,1.66,1.66,0,0,0-.66-.14,1.75,1.75,0,0,0-.76,3.32,1.74,1.74,0,1,0,3.26,1.23,2.41,2.41,0,0,0,.08-.25,1.84,1.84,0,0,0,.47.07,1.75,1.75,0,1,0,0-3.49Z"/><path class="cls-4" d="M34.08,18.63a.87.87,0,0,1,.71,1h0l-3,17.2h0L30,36.54h0l3-17.21a.87.87,0,0,1,1-.7Z"/><path class="cls-4" d="M30,36.54l1.72.3a.88.88,0,0,1,.71,1l-.15.86h0l-3.45-.61h0l.16-.86A.86.86,0,0,1,30,36.54Z"/><path class="cls-5" d="M30.26,35.26,30,36.53l1.72.3L32,35.59l-.22-.07Z"/><path class="cls-5" d="M31,38.25a.88.88,0,0,1-.71-1h0a.89.89,0,0,1,.4-.59l-.7-.12a.88.88,0,0,0-1,.71l-.15.86,3.44.6,0-.22Z"/><path class="cls-11" d="M33.83,45.18a11.32,11.32,0,0,1-8.6-1.52l3.64-5.56,3.44.6Z"/><path class="cls-12" d="M28,41.6l2.14-3.27-1.31-.23-3.64,5.56a11.33,11.33,0,0,0,8.6,1.52l0-.19a11.12,11.12,0,0,1-4.94-.81,1.75,1.75,0,0,1-1-2.28,2.19,2.19,0,0,1,.16-.3Z"/><path d="M32.76,38.69l.13-.77a1.3,1.3,0,0,0-.64-1.36l3-16.85a1.32,1.32,0,0,0-1.07-1.52,1.3,1.3,0,0,0-1.51,1.07h0l-3,16.84a1.32,1.32,0,0,0-1.08,1.06l-.13.77-3.6,5.49A.45.45,0,0,0,25,44h0a11.78,11.78,0,0,0,6.31,1.84,12.71,12.71,0,0,0,2.61-.27.45.45,0,0,0,.34-.52h0Zm.74-19.28a.45.45,0,0,1,.51-.35.45.45,0,0,1,.35.5l-3,16.77-.86-.15Zm-4.05,17.9A.45.45,0,0,1,30,37l1.72.3a.44.44,0,0,1,.35.51h0L32,38.2l-2.58-.46Zm3,7.64-.56-3.81a.44.44,0,0,0-.5-.36.43.43,0,0,0-.37.49L31.55,45a10.21,10.21,0,0,1-1.66-.1l.68-3.84a.44.44,0,0,0-.36-.51.43.43,0,0,0-.5.35L29,44.75a10.8,10.8,0,0,1-1.59-.48L29.23,41a.43.43,0,0,0-.18-.59.43.43,0,0,0-.59.18l-1.83,3.38c-.26-.13-.53-.26-.79-.41l3.24-4.94,2.87.5,1.35,5.76c-.29,0-.59.08-.88.11Z"/><path d="M36.56,36.39a1.31,1.31,0,1,0-1.31,1.31A1.31,1.31,0,0,0,36.56,36.39Zm-1.74,0a.44.44,0,0,1,.87,0,.44.44,0,1,1-.87,0Z"/><path d="M39.62,36.83a1.31,1.31,0,1,0-1.31-1.31A1.31,1.31,0,0,0,39.62,36.83Zm0-1.75a.44.44,0,1,1-.44.44A.44.44,0,0,1,39.62,35.08Z"/><circle class="cls-13" cx="39.62" cy="39.89" r="0.44"/><path d="M40.93,39.89a1.75,1.75,0,0,0-3-1.25,2.31,2.31,0,0,0-.52-.06,2.17,2.17,0,0,0-1.27,4l0,0a2.27,2.27,0,0,0,.09.52A2.64,2.64,0,0,0,39.36,45a1.72,1.72,0,0,0,1-.82,2.27,2.27,0,0,0,.52-.09A2.18,2.18,0,0,0,41,39.93Zm-.77.35a.44.44,0,0,0,.36.46,1.3,1.3,0,0,1,.15,2.54,1.27,1.27,0,0,1-.51,0,.43.43,0,0,0-.46.29.87.87,0,0,1-1.1.56,1.76,1.76,0,0,1-1.49-1.28,1.47,1.47,0,0,1,0-.51.46.46,0,0,0-.2-.42,1.29,1.29,0,0,1-.74-1.17,1.31,1.31,0,0,1,1.31-1.31,1.34,1.34,0,0,1,.49.1.43.43,0,0,0,.53-.15.87.87,0,0,1,1.22-.23,1,1,0,0,1,.47.72Z"/></g></g></g></svg>