<svg id="Group_100" data-name="Group 100" xmlns="http://www.w3.org/2000/svg" xmlns:xlink="http://www.w3.org/1999/xlink" width="36" height="36" viewBox="0 0 36 36">
  <defs>
    <clipPath id="clip-path">
      <rect id="Rectangle_1894" data-name="Rectangle 1894" width="36" height="36" fill="#fff"/>
    </clipPath>
  </defs>
  <g id="Group_99" data-name="Group 99" clip-path="url(#clip-path)">
    <path id="Path_131" data-name="Path 131" d="M29.071,19.251V15.336a11.071,11.071,0,1,0-22.141,0v3.915a3.841,3.841,0,0,0-1.8,3.275A3.881,3.881,0,0,0,9.008,26.4h4.364a4.776,4.776,0,0,0,9.257,0h4.363a3.877,3.877,0,0,0,2.079-7.15M20.116,26.4a2.421,2.421,0,0,1-4.232,0Zm6.876-2.354H9.008a1.521,1.521,0,1,1,0-3.042H26.992a1.521,1.521,0,1,1,0,3.042m-17.708-5.4,0-3.316a8.715,8.715,0,1,1,17.429,0v3.316Z" fill="#fff"/>
    <path id="Path_132" data-name="Path 132" d="M27.665,7.685a12.256,12.256,0,0,1,.9,1.3,1.124,1.124,0,0,0,.978.581,1.245,1.245,0,0,0,.638-.181,1.139,1.139,0,0,0,.4-1.615,14.29,14.29,0,0,0-1.069-1.542,14.52,14.52,0,0,0-1.256-1.392,1.183,1.183,0,0,0-.835-.347h-.011a1.176,1.176,0,0,0-.8,2.021,12.615,12.615,0,0,1,1.051,1.175" fill="#fff"/>
    <path id="Path_133" data-name="Path 133" d="M6.43,9.565h.022a1.135,1.135,0,0,0,.981-.581A12.865,12.865,0,0,1,9.385,6.511a1.177,1.177,0,0,0-.8-2.023H8.576a1.183,1.183,0,0,0-.832.344,14.818,14.818,0,0,0-1.259,1.4A14.367,14.367,0,0,0,5.417,7.768a1.133,1.133,0,0,0-.046,1.158,1.254,1.254,0,0,0,1.059.639" fill="#fff"/>
  </g>
</svg>
