<svg id="cheklist_0" data-name="cheklist 0" xmlns="http://www.w3.org/2000/svg" xmlns:xlink="http://www.w3.org/1999/xlink" width="96" height="96" viewBox="0 0 96 96">
  <defs>
    <clipPath id="clip-path">
      <rect id="Rectangle_3710" data-name="Rectangle 3710" width="96" height="96" fill="#919aab"/>
    </clipPath>
  </defs>
  <g id="Group_4861" data-name="Group 4861" transform="translate(0 0)" clip-path="url(#clip-path)">
    <path id="Path_12997" data-name="Path 12997" d="M16.546,17a3.277,3.277,0,1,0,3.274,3.277A3.281,3.281,0,0,0,16.546,17" transform="translate(21.933 29.357)" fill="#919aab"/>
    <path id="Path_12998" data-name="Path 12998" d="M16.546,22.252a3.277,3.277,0,1,0,3.274,3.277,3.281,3.281,0,0,0-3.274-3.277" transform="translate(21.933 38.034)" fill="#919aab"/>
    <path id="Path_12999" data-name="Path 12999" d="M23.541,27.5a3.277,3.277,0,1,0,3.277,3.277A3.281,3.281,0,0,0,23.541,27.5" transform="translate(33.504 46.71)" fill="#919aab"/>
    <path id="Path_13000" data-name="Path 13000" d="M36.871,27.275a3.5,3.5,0,0,0,0-3.487,3.168,3.168,0,0,0-2.866-1.534H20.12c-.1,0-.207,0-.308,0l-.027,0a3.28,3.28,0,0,0,.191,6.551H33.984a3.13,3.13,0,0,0,2.887-1.534" transform="translate(27.675 38.036)" fill="#919aab"/>
    <path id="Path_13001" data-name="Path 13001" d="M19.81,17.007h-.021a3.281,3.281,0,0,0,.188,6.554c.032,0,.066,0,.1,0H33.984a3.144,3.144,0,0,0,2.887-1.534,3.483,3.483,0,0,0,0-3.487,3.149,3.149,0,0,0-2.866-1.531H20.123a3.079,3.079,0,0,0-.313,0" transform="translate(27.675 29.356)" fill="#919aab"/>
    <path id="Path_13002" data-name="Path 13002" d="M60.6,7.647H49.959V6.278a3.278,3.278,0,0,0-3.272-3.264H28.143c-.1,0-.207,0-.313,0l-.042,0a3.262,3.262,0,0,0-2.956,3.264V7.647H14.189a7.928,7.928,0,0,0-7.92,7.918V66.623a7.928,7.928,0,0,0,7.92,7.918H37.382A3.2,3.2,0,0,0,40.248,73a3.5,3.5,0,0,0,0-3.465A3.131,3.131,0,0,0,37.4,67.987H14.189a1.307,1.307,0,0,1-1.366-1.364V15.564A1.306,1.306,0,0,1,14.189,14.2H24.832v1.372a3.246,3.246,0,0,0,.971,2.316,3.292,3.292,0,0,0,2.319.95h18.56a3.281,3.281,0,0,0,3.277-3.269V14.2H60.6a1.305,1.305,0,0,1,1.364,1.364V66.623A1.307,1.307,0,0,1,60.6,67.987h-4.63a3.177,3.177,0,0,0-2.863,1.544,3.482,3.482,0,0,0,0,3.465,3.135,3.135,0,0,0,2.794,1.544h4.7a7.928,7.928,0,0,0,7.918-7.918V15.564A7.928,7.928,0,0,0,60.6,7.647m-17.2,4.633H31.388V9.549H43.405Z" transform="translate(10.365 6.223)" fill="#919aab"/>
    <path id="Path_13003" data-name="Path 13003" d="M31.076,18.311a3.226,3.226,0,0,0,2.457-1.045,3.348,3.348,0,0,0,.823-2.234,3.175,3.175,0,0,0-3.28-3.277H21.79A3.226,3.226,0,0,0,19.333,12.8a3.346,3.346,0,0,0-.823,2.231,3.177,3.177,0,0,0,3.28,3.28Z" transform="translate(30.604 20.678)" fill="#919aab"/>
    <path id="Path_13004" data-name="Path 13004" d="M27.8,12.512a3.254,3.254,0,0,0-3.017-2h-.1a3.252,3.252,0,0,0-2.237.982l-4.261,4.248-.945-.939A3.12,3.12,0,0,0,14.1,13.72a3.539,3.539,0,0,0-2.56,2.56,3.122,3.122,0,0,0,1.083,3.147l3.248,3.264a3.277,3.277,0,0,0,4.643,0l6.551-6.551a3.254,3.254,0,0,0,.743-3.63" transform="translate(18.926 18.618)" fill="#919aab"/>
  </g>
</svg>
