<svg xmlns="http://www.w3.org/2000/svg" width="48" height="48" viewBox="0 0 48 48">
  <g id="Group_5033" data-name="Group 5033" transform="translate(-237 -265)">
    <circle id="Ellipse_470" data-name="Ellipse 470" cx="24" cy="24" r="24" transform="translate(237 265)" fill="#f1f3f9"/>
    <g id="salary" transform="translate(237.91 273.965)">
      <g id="Group_5022" data-name="Group 5022" transform="translate(7.99 0)">
        <g id="Group_5004" data-name="Group 5004" transform="translate(6.201)">
          <g id="Group_4999" data-name="Group 4999" transform="translate(1.227 2.846)">
            <g id="Group_4997" data-name="Group 4997">
              <path id="Path_13135" data-name="Path 13135" d="M136.436,49.776a.468.468,0,0,1-.378-.191,2.538,2.538,0,0,0-2.379-1.116,4.71,4.71,0,0,1-3.077-.7.469.469,0,0,1,.5-.79,3.781,3.781,0,0,0,2.473.557,3.487,3.487,0,0,1,3.233,1.493.469.469,0,0,1-.377.747Z" transform="translate(-130.385 -46.905)" fill="#ffd064"/>
            </g>
            <g id="Group_4998" data-name="Group 4998" transform="translate(0.674 2.538)">
              <path id="Path_13136" data-name="Path 13136" d="M141.956,91.548a.469.469,0,0,1-.4-.714,4.617,4.617,0,0,1,3.185-1.946,8.5,8.5,0,0,1,2.026-.153.469.469,0,0,1-.064.935c-.033,0-3.216-.191-4.348,1.654A.468.468,0,0,1,141.956,91.548Z" transform="translate(-141.487 -88.726)" fill="#ffd064"/>
            </g>
          </g>
          <g id="Group_5003" data-name="Group 5003">
            <g id="Group_5002" data-name="Group 5002">
              <path id="Path_13137" data-name="Path 13137" d="M119.608,26.171c7.7,0,11.957-11.294-.2-20.017a1.141,1.141,0,0,1-.478-.939,1.526,1.526,0,0,1,.277-.858,22.187,22.187,0,0,0,1.88-3.323.386.386,0,0,0-.365-.557c-.73,0-.73-.478-1.461-.478s-.73.478-1.461.478c-.622,0-.878-.535-1.18-.146-.882,1.136,2.14,5.13,2.14,5.13-13.349,8.775-9.045,20.71-1.163,20.71h2.013Z" transform="translate(-110.172 0)" fill="#4b566c"/>
              <g id="Group_5000" data-name="Group 5000" transform="translate(8.062)">
                <path id="Path_13138" data-name="Path 13138" d="M247.423,5.462s3.067-3.981,2.185-5.123c-.3-.389-.557.139-1.179.139-.73,0-.73-.478-1.461-.478s-.73.478-1.461.478c-.036,0-.069,0-.1,0a15.787,15.787,0,0,1-2.373,4.267c.3.437.513.721.513.721q-.267.176-.524.353c12.754,8.766,8.486,20.357.686,20.357h4.925c7.905,0,12.183-11.905-1.211-20.71Z" transform="translate(-243.022 0)" fill="#26324a"/>
              </g>
              <g id="Group_5001" data-name="Group 5001" transform="translate(6.891 4.638)">
                <path id="Path_13139" data-name="Path 13139" d="M229.865,78.665a10.671,10.671,0,0,1-5.326,0,1.137,1.137,0,0,1-.749-1.489l.007-.021a1.049,1.049,0,0,1,1.238-.7,8.671,8.671,0,0,0,4.332,0,1.049,1.049,0,0,1,1.238.7l.007.021a1.137,1.137,0,0,1-.749,1.489Z" transform="translate(-223.722 -76.425)" fill="#ffe07d"/>
              </g>
            </g>
          </g>
        </g>
        <g id="Group_5021" data-name="Group 5021" transform="translate(0 17.76)">
          <g id="Group_5020" data-name="Group 5020">
            <g id="Group_5019" data-name="Group 5019">
              <g id="Group_5018" data-name="Group 5018">
                <g id="Group_5017" data-name="Group 5017">
                  <g id="Group_5016" data-name="Group 5016">
                    <g id="Group_5015" data-name="Group 5015">
                      <g id="Group_5014" data-name="Group 5014">
                        <g id="Group_5013" data-name="Group 5013">
                          <g id="Group_5012" data-name="Group 5012">
                            <g id="Group_5011" data-name="Group 5011" transform="translate(2.475 1.643)">
                              <g id="Group_5010" data-name="Group 5010">
                                <g id="Group_5005" data-name="Group 5005" transform="translate(0)">
                                  <path id="Path_13140" data-name="Path 13140" d="M48.777,328.558l6.788,2.526a5.165,5.165,0,0,0,1.8.324h7a5.165,5.165,0,0,0,2.765-.8l8.759-5.55a1.537,1.537,0,0,0,.25-2.014,1.562,1.562,0,0,0-2.128-.411l-8.528,3.755L65.49,325a2.476,2.476,0,0,0-2.117-2.207l-5.193-.6a6.851,6.851,0,0,1-2.841-1.182,9.307,9.307,0,0,0-4.7-1.274H48.777Z" transform="translate(-48.777 -319.742)" fill="#ffddce"/>
                                </g>
                                <path id="Path_13141" data-name="Path 13141" d="M55.153,329.738a5.43,5.43,0,0,0,1.894.341H64.4a5.43,5.43,0,0,0,2.26-.493l5.142-3.258a1.588,1.588,0,0,0,.486-2.259s-.157-.268-.317-.541l-6.492,2.858L65.49,325a2.476,2.476,0,0,0-2.117-2.207l-5.193-.6a6.851,6.851,0,0,1-2.841-1.182,9.307,9.307,0,0,0-4.7-1.274H48.777v7.623Z" transform="translate(-48.777 -319.742)" fill="#ffddce"/>
                                <path id="Path_13142" data-name="Path 13142" d="M76.136,364.137a1.562,1.562,0,0,0-2.128-.411l-2.346,1.033.2.323a1.537,1.537,0,0,1-.25,2.014l-5.1,3.234a5.165,5.165,0,0,1-2.15.469h-7a5.165,5.165,0,0,1-1.8-.324l-6.788-2.527v1.7l6.788,2.527a5.165,5.165,0,0,0,1.8.324h7a5.165,5.165,0,0,0,2.765-.8l8.759-5.55a1.537,1.537,0,0,0,.25-2.014Z" transform="translate(-48.777 -360.837)" fill="#ffcbbe"/>
                                <g id="Group_5006" data-name="Group 5006" transform="translate(16.076 3.835)">
                                  <path id="Path_13143" data-name="Path 13143" d="M313.69,382.938v.033l.022-.01Z" transform="translate(-313.69 -382.938)" fill="#f5dbcc"/>
                                </g>
                                <g id="Group_5009" data-name="Group 5009" transform="translate(10.931 5.705)">
                                  <g id="Group_5008" data-name="Group 5008">
                                    <g id="Group_5007" data-name="Group 5007">
                                      <path id="Path_13144" data-name="Path 13144" d="M234.685,414.7h-5.3a.469.469,0,0,1,0-.938h5.309Z" transform="translate(-228.914 -413.759)" fill="#ffcbbe"/>
                                    </g>
                                  </g>
                                </g>
                              </g>
                            </g>
                            <path id="Path_13145" data-name="Path 13145" d="M11.926,304.479a.892.892,0,0,1-.892.892H8.882a.892.892,0,0,1-.892-.892V293.56a.892.892,0,0,1,.892-.892h2.152a.892.892,0,0,1,.892.892Z" transform="translate(-7.99 -292.668)" fill="#4b566c"/>
                          </g>
                        </g>
                      </g>
                    </g>
                  </g>
                </g>
              </g>
            </g>
          </g>
        </g>
      </g>
      <path id="Path_13146" data-name="Path 13146" d="M243.1,157.54c-.215-.076-.412-.148-.595-.219v-2.989a1.926,1.926,0,0,1,.912.4.469.469,0,0,0,.633-.692,2.9,2.9,0,0,0-1.545-.656v-.667a.469.469,0,1,0-.938,0v.7a3.475,3.475,0,0,0-.348.085,2.267,2.267,0,0,0-1.551,1.78,1.983,1.983,0,0,0,.644,1.954,5.681,5.681,0,0,0,1.255.709v3.708a2.489,2.489,0,0,1-1.458-.506.469.469,0,0,0-.513.785,3.434,3.434,0,0,0,1.971.658v.744a.469.469,0,1,0,.938,0v-.777a2.747,2.747,0,0,0,2.251-2.273A2.4,2.4,0,0,0,243.1,157.54Zm-2.209-1.036a1.057,1.057,0,0,1-.3-1.043,1.341,1.341,0,0,1,.9-1.055l.077-.022v2.533A3.952,3.952,0,0,1,240.888,156.5Zm2.941,3.631a1.826,1.826,0,0,1-1.326,1.47v-3.283l.282.1A1.476,1.476,0,0,1,243.828,160.135Z" transform="translate(-217.349 -143.011)" fill="#ffdb6b"/>
    </g>
  </g>
</svg>
