<svg id="Group_4927" data-name="Group 4927" xmlns="http://www.w3.org/2000/svg" xmlns:xlink="http://www.w3.org/1999/xlink" width="36" height="36" viewBox="0 0 36 36">
  <defs>
    <clipPath id="clip-path">
      <rect id="Rectangle_3754" data-name="Rectangle 3754" width="36" height="36" fill="#919aab"/>
    </clipPath>
  </defs>
  <g id="Group_4926" data-name="Group 4926" clip-path="url(#clip-path)">
    <path id="Path_13041" data-name="Path 13041" d="M26.7,28.174a1.279,1.279,0,1,1-1.663-1.944,10.795,10.795,0,1,0-4.961,2.4,1.279,1.279,0,0,1,.487,2.512A13.547,13.547,0,0,1,18,31.386a13.386,13.386,0,1,1,8.7-3.212" fill="#919aab"/>
    <path id="Path_13042" data-name="Path 13042" d="M15.292,22.893h8.6a1.123,1.123,0,0,0,0-2.239h-8.6a1.123,1.123,0,0,0,0,2.239" fill="#919aab"/>
    <path id="Path_13043" data-name="Path 13043" d="M12.362,23.027a1.254,1.254,0,1,0-1.254-1.254,1.255,1.255,0,0,0,1.254,1.254" fill="#919aab"/>
    <path id="Path_13044" data-name="Path 13044" d="M23.862,19.12a1.123,1.123,0,0,0,0-2.239h-8.6a1.123,1.123,0,0,0,0,2.239Z" fill="#919aab"/>
    <path id="Path_13045" data-name="Path 13045" d="M12.336,19.253A1.254,1.254,0,1,0,11.083,18a1.255,1.255,0,0,0,1.253,1.254" fill="#919aab"/>
    <path id="Path_13046" data-name="Path 13046" d="M23.862,13.107h-8.6a1.123,1.123,0,0,0,0,2.239h8.6a1.123,1.123,0,0,0,0-2.239" fill="#919aab"/>
    <path id="Path_13047" data-name="Path 13047" d="M12.336,15.48a1.254,1.254,0,1,0-1.253-1.254,1.255,1.255,0,0,0,1.253,1.254" fill="#919aab"/>
  </g>
</svg>
