<svg xmlns="http://www.w3.org/2000/svg" viewBox="0 0 48 48"><defs><style>.cls-1{fill:#f1f3f9;}.cls-2{fill:none;}.cls-3{fill:#ffd3b6;}.cls-4{fill:#f8c460;}.cls-5{fill:#faaf42;}.cls-6{fill:#f97878;}.cls-7{fill:#fcab68;}.cls-8{fill:#ed5d5d;}.cls-9{fill:#ccd3eb;}.cls-10{fill:#96a1c3;}.cls-11{fill:#f9b995;}.cls-12{fill:#7a838b;}.cls-13{fill:#5d6972;}.cls-14{fill:#fff;}</style></defs><g id="Layer_2" data-name="Layer 2"><g id="Layer_1-2" data-name="Layer 1"><circle class="cls-1" cx="24" cy="24" r="24"/><rect class="cls-2" x="12" y="12" width="24" height="24"/><g id="Layer_31" data-name="Layer 31"><path class="cls-3" d="M20.22,18.16h7.56v4.46a3.78,3.78,0,1,1-7.56,0V18.16Z"/><path class="cls-4" d="M24,14a3.78,3.78,0,0,1,3.78,3.78v1H20.22v-1A3.78,3.78,0,0,1,24,14Z"/><path class="cls-5" d="M26.45,18l-.67.05L24.26,14h0a3.81,3.81,0,0,0-2.07.45l-1.06,2.84a.84.84,0,0,1-.91.54h0v1h7.56v-1c-.45.07-.89.12-1.33.17Z"/><path class="cls-6" d="M26.75,18.84h-5.5L23.07,14a1,1,0,0,1,1.86,0Z"/><circle class="cls-7" cx="24" cy="16.78" r="0.69"/><path class="cls-6" d="M22.62,26.41h2.76a.68.68,0,0,1,.68.68v1.38H21.94V27.09A.68.68,0,0,1,22.62,26.41Z"/><path class="cls-8" d="M23,26.75v-.34h-.35a.68.68,0,0,0-.68.68v1.38h4.12v-1h-2.4A.69.69,0,0,1,23,26.75Z"/><path class="cls-9" d="M20.22,28.47h7.56a4.13,4.13,0,0,1,4.13,4.12v2.07H16.09V32.59A4.13,4.13,0,0,1,20.22,28.47Z"/><path class="cls-10" d="M19.19,33.62a2.07,2.07,0,0,1-2.07-2.06,4.05,4.05,0,0,1,.75-2.35,4.12,4.12,0,0,0-1.78,3.38v2.07H31.91v-1Z"/><path class="cls-4" d="M18.84,32.59H29.16v2.07H18.84Z"/><path class="cls-4" d="M16.09,32.59h2.75v2.07H16.09Z"/><path class="cls-4" d="M29.16,32.59h2.75v2.07H29.16Z"/><path class="cls-5" d="M29.16,33.62h2.75v1H29.16Z"/><path class="cls-5" d="M29.16,33.62v1H18.84V33.59a1.38,1.38,0,0,0,.35,0Z"/><path class="cls-5" d="M18.84,33.59v1.07H16.09V32.59H17.4A2,2,0,0,0,18.84,33.59Z"/><path class="cls-11" d="M19.87,19.53h.35v2.06h-.35a1,1,0,1,1,0-2.06Z"/><path class="cls-11" d="M28.13,21.59h-.35V19.53h.35a1,1,0,0,1,0,2.06Z"/><path class="cls-11" d="M27.78,20.61V19.24a24.62,24.62,0,0,1-6.53.14l-1-.14V22.5a3.85,3.85,0,0,0,3.63,3.9,3.76,3.76,0,0,0,3.29-1.67,3.77,3.77,0,0,1-2.77.59,3.84,3.84,0,0,1-3.12-3.82.68.68,0,0,1,.69-.68H22a24.31,24.31,0,0,0,5.78-.21Z"/><path class="cls-12" d="M29.32,19.65a25.11,25.11,0,0,1-10.64,0,.67.67,0,0,1,.14-1.33H19a25.16,25.16,0,0,0,10.08,0,.67.67,0,0,1,.79.53.57.57,0,0,1,0,.13A.67.67,0,0,1,29.32,19.65Z"/><path class="cls-8" d="M26.45,18c-.63.06-1.27.1-1.9.11a1.38,1.38,0,0,1-1.4-1.35,1.48,1.48,0,0,1,.09-.51L24.1,14a1,1,0,0,1,.42-.5,1,1,0,0,0-1.46.53l-1.51,4-.3.8h5.5Z"/><path class="cls-13" d="M19.72,19.65a.67.67,0,0,1-.22-1.22l-.55-.1a.67.67,0,0,0-.27,1.32,24.93,24.93,0,0,0,5.84.55A24.86,24.86,0,0,1,19.72,19.65Z"/><path d="M25,16.78a1,1,0,1,0-1,1A1,1,0,0,0,25,16.78Zm-1.37,0a.34.34,0,1,1,.34.34A.34.34,0,0,1,23.66,16.78Z"/><path d="M31.54,32.25h-7.2V28.81h3.44A3.77,3.77,0,0,1,31.54,32.25Zm-9.26-5.16a.34.34,0,0,1,.34-.34h1v1.37H22.28Zm2.06-.34h1a.34.34,0,0,1,.34.34v1H24.34Zm4.47-6.19a.73.73,0,0,1-.16.45l0,0a.63.63,0,0,1-.48.21v-1l.53-.09A.68.68,0,0,1,28.81,20.56Zm-8.25-2.75a3.46,3.46,0,0,1,1.85-3l-1,2.58a.35.35,0,0,0,.21.44.34.34,0,0,0,.44-.2l1.3-3.48a.65.65,0,0,1,1.22,0l1.3,3.48a.35.35,0,0,0,.32.22l.13,0a.35.35,0,0,0,.2-.44h0l-1-2.58a3.46,3.46,0,0,1,1.85,3v.44a24.77,24.77,0,0,1-6.88,0ZM18.5,19a.34.34,0,0,1,.12-.26.32.32,0,0,1,.27-.06,25.49,25.49,0,0,0,10.22,0,.32.32,0,0,1,.27.06.34.34,0,0,1,.05.47.29.29,0,0,1-.19.11,22.86,22.86,0,0,1-2.87.45.34.34,0,0,0,.07.68l1-.11v2.29a3.44,3.44,0,1,1-6.88,0v-2.3a24.9,24.9,0,0,0,3.45.24c.35,0,.69,0,1,0a.34.34,0,1,0,0-.68,24.83,24.83,0,0,1-6.26-.55A.31.31,0,0,1,18.5,19Zm1.37,1.23v1a.63.63,0,0,1-.48-.21l0,0a.68.68,0,0,1,0-.89Zm-1.35,8.24h0a4.48,4.48,0,0,0-2.77,4.13v2.07a.34.34,0,0,0,.34.34H31.91a.34.34,0,0,0,.34-.34V32.59a4.48,4.48,0,0,0-2.77-4.13h0l-.7-.22a5.58,5.58,0,0,0-1-.12H26.41v-1a1,1,0,0,0-.44-.84,4.14,4.14,0,0,0,2.16-3.63v-.68a1.31,1.31,0,0,0,.43-.08s.25,0,.67-.49A1.35,1.35,0,0,0,29.37,20h0a1,1,0,0,0,.77-1.22,1,1,0,0,0-.35-.57A1,1,0,0,0,29,18l-.86.16v-.34a4.12,4.12,0,0,0-2.86-3.92v0a1.34,1.34,0,0,0-1.72-.78,1.31,1.31,0,0,0-.78.78v0a4.15,4.15,0,0,0-2.87,3.92v.34L19,18a1,1,0,0,0-.83.21A1,1,0,0,0,18,19.64a1.1,1.1,0,0,0,.57.35h0a1.35,1.35,0,0,0,.14,1.38,2,2,0,0,0,.67.49,1.31,1.31,0,0,0,.43.08v.68A4.14,4.14,0,0,0,22,26.25a1,1,0,0,0-.44.84v1H20.22a5.58,5.58,0,0,0-1,.12l-.7.22m-2.08,4.48H18.5v1.37H16.44Zm2.75,1.37V32.94h1a.35.35,0,0,0,.34-.35.34.34,0,0,0-.34-.34H16.46a3.77,3.77,0,0,1,3.76-3.44h3.44v3.44H21.59a.34.34,0,0,0-.34.34.35.35,0,0,0,.34.35h2.07v1.37Zm5.15-1.37h4.47v1.37H24.34Zm7.22,1.37H29.5V32.94h2.06Z"/><path d="M22.28,20.91a.34.34,0,0,0-.34.34v.34a.34.34,0,1,0,.68,0v-.34A.34.34,0,0,0,22.28,20.91Z"/><path d="M25.72,21.94a.35.35,0,0,0,.34-.35v-.34a.34.34,0,0,0-.68,0v.34A.35.35,0,0,0,25.72,21.94Z"/><path class="cls-14" d="M28.47,19.47a.34.34,0,0,1-.06-.68l.68-.13a.34.34,0,0,1,.41.26.35.35,0,0,1-.26.41h0l-.7.14Z"/></g></g></g></svg>