<svg xmlns="http://www.w3.org/2000/svg" width="130.462" height="49.049" viewBox="0 0 130.462 49.049">
  <g id="Group_4965" data-name="Group 4965" transform="translate(12279.499 19066.602)">
    <path id="Path_13039" data-name="Path 13039" d="M-37.106-14.384a2.961,2.961,0,0,1,.357.018.837.837,0,0,1,.256.071.859.859,0,0,1,.22.155,2.481,2.481,0,0,1,.238.268L-27-2.361q-.048-.417-.065-.815t-.018-.744V-14.384h2.821V2.83h-1.655a1.467,1.467,0,0,1-.631-.119,1.4,1.4,0,0,1-.488-.429l-9-11.464q.036.381.054.756t.018.684V2.83h-2.821V-14.384Zm19.285,5V2.83h-2.94V-9.384Zm.44-3.559a1.675,1.675,0,0,1-.155.714,1.963,1.963,0,0,1-.411.583,1.963,1.963,0,0,1-.6.4,1.845,1.845,0,0,1-.738.149,1.773,1.773,0,0,1-.72-.149,1.908,1.908,0,0,1-.589-.4,1.928,1.928,0,0,1-.4-.583,1.732,1.732,0,0,1-.149-.714,1.844,1.844,0,0,1,.149-.738,1.889,1.889,0,0,1,.4-.6,1.908,1.908,0,0,1,.589-.4,1.773,1.773,0,0,1,.72-.149,1.845,1.845,0,0,1,.738.149,1.963,1.963,0,0,1,.6.4,1.92,1.92,0,0,1,.411.6A1.784,1.784,0,0,1-17.381-12.943ZM-14.5,2.83V-9.384h1.8a.722.722,0,0,1,.75.536l.19.9A6.955,6.955,0,0,1-11.09-8.6a4.321,4.321,0,0,1,.75-.512,4.062,4.062,0,0,1,.857-.339,3.816,3.816,0,0,1,1.006-.125,2.851,2.851,0,0,1,1.9.625A3.763,3.763,0,0,1-5.465-7.289a3.727,3.727,0,0,1,.714-1.042,3.9,3.9,0,0,1,.94-.708,4.328,4.328,0,0,1,1.089-.4A5.232,5.232,0,0,1-1.56-9.575a4.877,4.877,0,0,1,1.8.31,3.448,3.448,0,0,1,1.321.9,3.988,3.988,0,0,1,.815,1.452,6.326,6.326,0,0,1,.28,1.964V2.83H-.287V-4.944A2.613,2.613,0,0,0-.8-6.7a1.879,1.879,0,0,0-1.5-.589,2.239,2.239,0,0,0-.839.155,2,2,0,0,0-.679.446,2.038,2.038,0,0,0-.458.732,2.847,2.847,0,0,0-.167,1.012V2.83H-7.393V-4.944a2.66,2.66,0,0,0-.494-1.786,1.843,1.843,0,0,0-1.458-.559,2.354,2.354,0,0,0-1.184.315,3.99,3.99,0,0,0-1.03.863V2.83Zm20.082,0V-14.86h2.94v6.976a5.8,5.8,0,0,1,1.643-1.232,4.735,4.735,0,0,1,2.143-.458,4.052,4.052,0,0,1,1.827.411,4.065,4.065,0,0,1,1.429,1.2,5.732,5.732,0,0,1,.929,1.94,9.758,9.758,0,0,1,.327,2.655,8.367,8.367,0,0,1-.369,2.536A6.2,6.2,0,0,1,15.4,1.187a4.867,4.867,0,0,1-1.655,1.339,4.815,4.815,0,0,1-2.173.482A4.326,4.326,0,0,1,10.546,2.9,3.62,3.62,0,0,1,9.7,2.58a3.6,3.6,0,0,1-.708-.494,6.076,6.076,0,0,1-.625-.649l-.131.821a.738.738,0,0,1-.244.44.761.761,0,0,1-.47.131ZM11.3-7.289A3,3,0,0,0,9.731-6.9,4.527,4.527,0,0,0,8.523-5.813V-.337A2.8,2.8,0,0,0,9.612.526a3.312,3.312,0,0,0,1.28.244,2.809,2.809,0,0,0,1.2-.25A2.356,2.356,0,0,0,13-.242a3.769,3.769,0,0,0,.577-1.292,7.38,7.38,0,0,0,.2-1.839,8.165,8.165,0,0,0-.173-1.815A3.507,3.507,0,0,0,13.118-6.4a1.952,1.952,0,0,0-.78-.679A2.432,2.432,0,0,0,11.3-7.289Zm10.511-2.1v7.762A2.609,2.609,0,0,0,22.325.11a1.919,1.919,0,0,0,1.554.613A3.105,3.105,0,0,0,25.307.383a4.994,4.994,0,0,0,1.262-.934V-9.384h2.94V2.83h-1.8a.722.722,0,0,1-.75-.536l-.2-.976a8.513,8.513,0,0,1-.786.7,4.74,4.74,0,0,1-.863.536,4.84,4.84,0,0,1-.988.345,4.941,4.941,0,0,1-1.137.125,4.336,4.336,0,0,1-1.768-.339,3.541,3.541,0,0,1-1.292-.958,4.2,4.2,0,0,1-.792-1.47,6.223,6.223,0,0,1-.268-1.875V-9.384ZM39.9-7a.785.785,0,0,1-.25.268.648.648,0,0,1-.333.077,1.05,1.05,0,0,1-.458-.119q-.244-.119-.565-.268a5.178,5.178,0,0,0-.732-.268,3.506,3.506,0,0,0-.97-.119,2.261,2.261,0,0,0-1.369.369,1.145,1.145,0,0,0-.5.964.92.92,0,0,0,.256.661,2.3,2.3,0,0,0,.679.47,6.641,6.641,0,0,0,.958.363q.536.161,1.1.351t1.1.435a3.819,3.819,0,0,1,.958.619,2.875,2.875,0,0,1,.679.9A2.851,2.851,0,0,1,40.7-1.039,4.054,4.054,0,0,1,40.378.586a3.572,3.572,0,0,1-.94,1.286,4.407,4.407,0,0,1-1.53.845,6.6,6.6,0,0,1-2.089.3,6.65,6.65,0,0,1-1.232-.113,7.272,7.272,0,0,1-1.155-.315,6.39,6.39,0,0,1-1.024-.476,4.969,4.969,0,0,1-.827-.6L32.26.4a.96.96,0,0,1,.31-.31.868.868,0,0,1,.452-.107.951.951,0,0,1,.518.155q.244.155.565.333a5.054,5.054,0,0,0,.756.333,3.326,3.326,0,0,0,1.1.155,2.857,2.857,0,0,0,.9-.125A1.9,1.9,0,0,0,37.48.508a1.229,1.229,0,0,0,.357-.47,1.41,1.41,0,0,0,.113-.554.987.987,0,0,0-.256-.7,2.24,2.24,0,0,0-.679-.476,6.553,6.553,0,0,0-.964-.363q-.542-.161-1.107-.351a10.241,10.241,0,0,1-1.107-.446,3.773,3.773,0,0,1-.964-.649,2.936,2.936,0,0,1-.679-.964,3.365,3.365,0,0,1-.256-1.381,3.518,3.518,0,0,1,.3-1.429,3.351,3.351,0,0,1,.875-1.184,4.345,4.345,0,0,1,1.44-.809,6,6,0,0,1,1.994-.3,6.1,6.1,0,0,1,2.3.417,5.189,5.189,0,0,1,1.726,1.1Zm7.893,2.964a5.116,5.116,0,0,1-1.75-.31,4.443,4.443,0,0,1-1.53-.934,4.606,4.606,0,0,1-1.077-1.548,5.342,5.342,0,0,1-.4-2.161,5.5,5.5,0,0,1,.429-2.167,5.442,5.442,0,0,1,1.2-1.774,5.64,5.64,0,0,1,1.857-1.2,6.3,6.3,0,0,1,2.393-.44,6.413,6.413,0,0,1,2.375.417,5.178,5.178,0,0,1,1.8,1.167,5.085,5.085,0,0,1,1.143,1.8,6.408,6.408,0,0,1,.4,2.3,8.023,8.023,0,0,1-.137,1.512A7.93,7.93,0,0,1,54.1-6.009a9.519,9.519,0,0,1-.613,1.286q-.357.625-.8,1.256l-3.94,5.619a1.56,1.56,0,0,1-.6.482,2.035,2.035,0,0,1-.911.2h-2.7l5.345-6.678q.2-.25.381-.488t.345-.476a4.749,4.749,0,0,1-1.309.577A5.632,5.632,0,0,1,47.795-4.039Zm4.012-5.155a3.459,3.459,0,0,0-.214-1.256,2.576,2.576,0,0,0-.607-.934,2.663,2.663,0,0,0-.934-.583,3.359,3.359,0,0,0-1.184-.2,3.136,3.136,0,0,0-1.2.22,2.615,2.615,0,0,0-.911.613,2.708,2.708,0,0,0-.577.934,3.359,3.359,0,0,0-.2,1.184,3,3,0,0,0,.744,2.2,2.832,2.832,0,0,0,2.113.756A3.33,3.33,0,0,0,50.1-6.491a2.71,2.71,0,0,0,.934-.619,2.6,2.6,0,0,0,.577-.929A3.329,3.329,0,0,0,51.806-9.194Z" transform="translate(-12203.665 -19033.354)" fill="#fff"/>
    <path id="Path_6511" data-name="Path 6511" d="M299.3,652.195H285.559V624.321l6.871-4.152v-7.228l16.932-9.8v43.107Zm-10.166-3.571h9.191l7.47-4.41V609.338L296,615v3.01l6.871-4.151v28l-10.443,6.213V624.342l-3.3,1.994ZM296,622.185V641.8l3.3-1.963V620.191Z" transform="translate(-12565.059 -19669.746)" fill="#fff"/>
  </g>
</svg>
