<svg xmlns="http://www.w3.org/2000/svg" viewBox="0 0 48 48"><defs><style>.cls-1{fill:#f1f3f9;}.cls-2{fill:none;}.cls-3{fill:#ffd3b6;}.cls-4{fill:#ccd3eb;}.cls-5{fill:#96a1c3;}.cls-6{fill:#f5f7ff;}.cls-7{fill:#f9b995;}.cls-8{fill:#a7d0e1;}.cls-9{fill:#80bbce;}.cls-10{fill:#e6e6e6;}.cls-11{fill:#cecece;}.cls-12{fill:#fcab68;}.cls-13{fill:#ea8e49;}.cls-14{fill:#fff;}</style></defs><g id="Layer_2" data-name="Layer 2"><g id="Layer_1-2" data-name="Layer 1"><circle class="cls-1" cx="24" cy="24" r="24"/><rect class="cls-2" x="12" y="12" width="24" height="24"/><path class="cls-3" d="M23,23.86v2.7a1,1,0,1,0,2,0v-2.7Z"/><path class="cls-4" d="M31.76,30.61v4H16.24v-4a4.05,4.05,0,0,1,4.05-4.05H23a1,1,0,1,0,2,0h2.7A4.05,4.05,0,0,1,31.76,30.61Z"/><path class="cls-5" d="M21.3,33.65a4,4,0,0,1-4.05-4A4,4,0,0,1,18,27.29a4.05,4.05,0,0,0-1.74,3.32v4H31.76v-1Z"/><path class="cls-6" d="M21,25.89a.67.67,0,0,1,.68.67v3.72H20.29V26.56A.67.67,0,0,1,21,25.89Z"/><path class="cls-6" d="M27,25.89a.67.67,0,0,1,.67.67v3.72H26.36V26.56A.67.67,0,0,1,27,25.89Z"/><path class="cls-6" d="M29.06,34.66H18.94l1.35-4.38h7.42Z"/><path class="cls-5" d="M28.75,33.65H21.29a.76.76,0,0,1-.75-.79.83.83,0,0,1,0-.22l.73-2.36h-1l-1.35,4.38H29.06Z"/><path class="cls-7" d="M16.24,33.31h2a.67.67,0,0,1,.68.68v.67h-2.7V33.31Z"/><path class="cls-3" d="M29.74,33.31h2v1.35h-2.7V34A.67.67,0,0,1,29.74,33.31Z"/><path class="cls-7" d="M29.06,34v.67h2.7v-1h-2.6A.59.59,0,0,0,29.06,34Z"/><path class="cls-7" d="M23,23.86h2v2H23Z"/><path class="cls-3" d="M20.31,17.39h7.42v4.38A3.71,3.71,0,0,1,24,25.48h0a3.71,3.71,0,0,1-3.71-3.71V17.39Z"/><path class="cls-7" d="M27.73,18.74V17.39H20.31v4.27a3.78,3.78,0,0,0,3.57,3.82,3.7,3.7,0,0,0,3.22-1.64,3.69,3.69,0,0,1-2.46.61,3.76,3.76,0,0,1-3.32-3.78V19.41a.67.67,0,0,1,.67-.67Z"/><path class="cls-7" d="M20,18.06h.34v2H20a1,1,0,0,1,0-2Z"/><path class="cls-7" d="M28.07,20.09h-.34v-2h.34a1,1,0,0,1,0,2Z"/><path class="cls-8" d="M24,25.48a3.71,3.71,0,0,1-3.71-3.71v-.33a10.53,10.53,0,0,1,7.42,0v.33A3.71,3.71,0,0,1,24,25.48Z"/><path class="cls-9" d="M27.1,23.84a3.71,3.71,0,0,1-6.79-2.07v-.33a9.49,9.49,0,0,1,1-.33,3.7,3.7,0,0,0,5.76,2.73Z"/><path class="cls-6" d="M24,13.34a3.71,3.71,0,0,1,3.71,3.71v.34H20.31v-.34A3.71,3.71,0,0,1,24,13.34Z"/><path class="cls-5" d="M24.52,13.38a3.69,3.69,0,0,0-4.18,3.11,3.51,3.51,0,0,0,0,.56v.34h1v-.34A3.71,3.71,0,0,1,24.52,13.38Z"/><path class="cls-10" d="M20.31,16.71h7.42v1.35H20.31Z"/><path class="cls-11" d="M20.31,16.71h1v1.35h-1Z"/><circle class="cls-12" cx="24.02" cy="17.39" r="1.35"/><path class="cls-13" d="M25,17.72a1.34,1.34,0,0,1-1.35-1.33,1.22,1.22,0,0,1,0-.32,1.35,1.35,0,1,0,1.61,1.62A1.53,1.53,0,0,1,25,17.72Z"/><path d="M22.33,20.42a.34.34,0,0,0,.34-.33v-.34a.34.34,0,0,0-.68,0v.34A.34.34,0,0,0,22.33,20.42Z"/><path d="M25.7,20.42a.34.34,0,0,0,.34-.33v-.34a.34.34,0,1,0-.67,0v.34A.33.33,0,0,0,25.7,20.42Z"/><path class="cls-14" d="M26.54,15.7a.35.35,0,0,1-.28-.15,2.62,2.62,0,0,0-.55-.6.35.35,0,0,1-.05-.48.36.36,0,0,1,.48-.05,3.72,3.72,0,0,1,.68.75.34.34,0,0,1-.09.47.33.33,0,0,1-.19.06Z"/><path d="M29.17,26.48a.33.33,0,1,0-.22.63,3.72,3.72,0,0,1,2.47,3.5V33H29.74a1,1,0,0,0-.74.32l-.95-3.08V26.56a1,1,0,0,0-1-1,1,1,0,0,0-.95.68h-.74v-.64h0a4.08,4.08,0,0,0,2.7-3.82V20.42a1.35,1.35,0,0,0,0-2.7v-.67a4,4,0,0,0-.66-2.21.34.34,0,0,0-.56.37,3.68,3.68,0,0,1,.47,1.16h-2A1.67,1.67,0,0,0,23,16a1.37,1.37,0,0,0-.34.34h-2a3.38,3.38,0,0,1,4-2.63,3.28,3.28,0,0,1,1.27.55.34.34,0,0,0,.47-.06.35.35,0,0,0-.06-.48h0a4.06,4.06,0,0,0-5.65,1A4.12,4.12,0,0,0,20,17.05v.67a1.35,1.35,0,1,0,0,2.7v1.35a4,4,0,0,0,2.68,3.81v.65h-.74a1,1,0,0,0-2,.33v3.66L19,33.3a1,1,0,0,0-.74-.32H16.58V30.61a3.72,3.72,0,0,1,2.47-3.5.33.33,0,1,0-.22-.63,4.37,4.37,0,0,0-2.93,4.13v4a.34.34,0,0,0,.34.34H31.76a.34.34,0,0,0,.34-.34v-4A4.37,4.37,0,0,0,29.17,26.48ZM18.6,34.33h-2v-.68h1.68a.34.34,0,0,1,.34.34Zm8.1-7.77a.34.34,0,0,1,.67,0v3.38H26.7Zm-3.37-.8h0a3.72,3.72,0,0,0,1.33,0v.8a.67.67,0,1,1-1.34,0Zm2.34-8.71h1.72v.67H25.67A1.52,1.52,0,0,0,25.67,17.05ZM24,16.37a1,1,0,1,1-1,1A1,1,0,0,1,24,16.37Zm-3.38.68h1.72a1.89,1.89,0,0,0,0,.67H20.64Zm-.33,2a.34.34,0,0,0-.34.34v.34a.68.68,0,1,1,0-1.35h2.71a1.66,1.66,0,0,0,2.33.35,1.93,1.93,0,0,0,.35-.35h2.71a.68.68,0,0,1,0,1.35v-.34a.34.34,0,0,0-.68,0V21a11,11,0,0,0-6.75,0V19.41A.34.34,0,0,0,20.31,19.07Zm.33,2.7v-.1a10.28,10.28,0,0,1,6.75,0v.1a3.38,3.38,0,1,1-6.75,0ZM22,26.9h.71a1.35,1.35,0,0,0,2.62,0H26v3H22Zm-1.35-.34a.34.34,0,0,1,.67,0v3.38h-.67ZM19.4,34.33l1.14-3.72h6.92l1.14,3.72Zm12,0h-2V34a.34.34,0,0,1,.34-.34h1.68Z"/></g></g></svg>