<svg id="Group_4913" data-name="Group 4913" xmlns="http://www.w3.org/2000/svg" xmlns:xlink="http://www.w3.org/1999/xlink" width="36" height="36" viewBox="0 0 36 36">
  <defs>
    <clipPath id="clip-path">
      <rect id="Rectangle_3734" data-name="Rectangle 3734" width="36" height="36" fill="#fff"/>
    </clipPath>
  </defs>
  <g id="Group_4912" data-name="Group 4912" clip-path="url(#clip-path)">
    <path id="Path_13018" data-name="Path 13018" d="M12.081,18.181H23.918a1.05,1.05,0,1,0,0-2.1H12.081a1.05,1.05,0,1,0,0,2.1" fill="#fff"/>
    <path id="Path_13019" data-name="Path 13019" d="M12.081,12.262H23.918a1.05,1.05,0,1,0,0-2.1H12.081a1.05,1.05,0,0,0,0,2.1" fill="#fff"/>
    <path id="Path_13020" data-name="Path 13020" d="M12.081,24.1H18A1.05,1.05,0,0,0,18,22H12.081a1.05,1.05,0,1,0,0,2.1" fill="#fff"/>
    <path id="Path_13021" data-name="Path 13021" d="M24.814,4.243H11.186a6.08,6.08,0,0,0-6.074,6.073V23.944a6.081,6.081,0,0,0,6.074,6.074H22.932a5.772,5.772,0,0,0,4.11-1.7l2.142-2.142a5.776,5.776,0,0,0,1.7-4.111V10.316a6.08,6.08,0,0,0-6.073-6.073m-17.6,6.073a3.978,3.978,0,0,1,3.974-3.973H24.814a3.977,3.977,0,0,1,3.973,3.973v10.7H25.941a4.065,4.065,0,0,0-4.059,4.06v2.846h-10.7a3.979,3.979,0,0,1-3.974-3.974Zm16.77,14.756a1.961,1.961,0,0,1,1.959-1.959h2.7a3.71,3.71,0,0,1-.937,1.575L25.557,26.83a3.706,3.706,0,0,1-1.575.938Z" fill="#fff"/>
  </g>
</svg>
