<svg xmlns="http://www.w3.org/2000/svg" width="60" height="60" viewBox="0 0 60 60">
  <path id="Icon_awesome-user-circle" data-name="Icon awesome-user-circle" d="M30,.563a30,30,0,1,0,30,30A29.995,29.995,0,0,0,30,.563Zm0,11.613A10.645,10.645,0,1,1,19.355,22.821,10.645,10.645,0,0,1,30,12.175Zm0,41.613a23.181,23.181,0,0,1-17.722-8.25A13.487,13.487,0,0,1,24.194,38.3a2.96,2.96,0,0,1,.859.133A16.016,16.016,0,0,0,30,39.272a15.956,15.956,0,0,0,4.948-.835,2.96,2.96,0,0,1,.859-.133,13.487,13.487,0,0,1,11.915,7.234A23.181,23.181,0,0,1,30,53.788Z" transform="translate(0 -0.563)" fill="#d9dee6"/>
</svg>
